<svg xmlns="http://www.w3.org/2000/svg" xmlns:xlink="http://www.w3.org/1999/xlink" xmlns:lucid="lucid" width="1315" height="1616"><g transform="translate(-20 -19)" lucid:page-tab-id="0uiUoWata4JI"><path d="M40 46c0-3.3 2.7-6 6-6h1263c3.3 0 6 2.7 6 6v1563c0 3.3-2.7 6-6 6H46c-3.3 0-6-2.7-6-6z" stroke="#5e5e5e" stroke-width="3" fill="#fff"/><path d="M40 46c0-3.3 2.7-6 6-6h1263c3.3 0 6 2.7 6 6v48c0 3.3-2.7 6-6 6H46c-3.3 0-6-2.7-6-6z" stroke="#5e5e5e" stroke-width="3" fill="#bfbfbf"/><path d="M232 70c0-3.3 2.7-6 6-6h1059c3.3 0 6 2.7 6 6v12c0 3.3-2.7 6-6 6H238c-3.3 0-6-2.7-6-6z" stroke="#5e5e5e" stroke-width="3" fill="#fff"/><path d="M64 64L52 76l12 12M52 76h24M112 64l12 12-12 12m-12-12h24M172 76c-1.4-6.23-2.8-8.15-4.95-9.7-5.36-3.9-12.86-2.72-16.76 2.65-3.9 5.36-2.72 12.86 2.65 16.76 5.36 3.9 12.86 2.72 16.76-2.65" stroke="#5e5e5e" stroke-width="6" fill="none"/><path d="M175.12 64v12h-12z" stroke="#5e5e5e" stroke-width="1.5" fill="#5e5e5e"/><path d="M196 76l12-12 12 12h-2.4v12h-6V76h-7.2v12h-6V76z" stroke="#5e5e5e" fill="#5e5e5e"/><use xlink:href="#a" transform="matrix(1,0,0,1,60,40) translate(597.0061728395062 17.77777777777778)"/><use xlink:href="#b" transform="matrix(1,0,0,1,238,64) translate(0 17.77777777777778)"/><path d="M180 227.83c0-3.3 2.7-6 6-6h188c3.3 0 6 2.7 6 6v48c0 3.32-2.7 6-6 6H186c-3.3 0-6-2.68-6-6z" stroke="#5e5e5e" stroke-width="3" fill="#e5e5e5"/><use xlink:href="#c" transform="matrix(1,0,0,1,185,226.83333333333334) translate(65.4320987654321 30.27777777777778)"/><path d="M40 106c0-3.3 2.7-6 6-6h1263c3.3 0 6 2.7 6 6v108c0 3.3-2.7 6-6 6H46c-3.3 0-6-2.7-6-6z" stroke="#5e5e5e" stroke-width="3" fill="#fff"/><path d="M290 126c0-3.3 2.7-6 6-6h88c3.3 0 6 2.7 6 6v68c0 3.3-2.7 6-6 6h-88c-3.3 0-6-2.7-6-6z" stroke="#5e5e5e" stroke-width="3" fill="#fff"/><path d="M290 120l100 80m0-80l-100 80" stroke="#5e5e5e" stroke-width="3" fill="none"/><path d="M470 126c0-3.3 2.7-6 6-6h128c3.3 0 6 2.7 6 6v35.33c0 3.32-2.7 6-6 6H476c-3.3 0-6-2.68-6-6z" stroke="#000" stroke-opacity="0" stroke-width="3" fill="#fff" fill-opacity="0"/><use xlink:href="#d" transform="matrix(1,0,0,1,475,125) translate(13.277777777777786 27.263888888888886)"/><path d="M430 149.67c0-3.32 2.7-6 6-6h208c3.3 0 6 2.68 6 6V194c0 3.3-2.7 6-6 6H436c-3.3 0-6-2.7-6-6z" stroke="#000" stroke-opacity="0" stroke-width="3" fill="#fff" fill-opacity="0"/><use xlink:href="#e" transform="matrix(1,0,0,1,435,148.66666666666669) translate(14.777777777777786 27.131944444444443)"/><use xlink:href="#f" transform="matrix(1,0,0,1,435,148.66666666666669) translate(79.54938271604938 27.131944444444443)"/><use xlink:href="#g" transform="matrix(1,0,0,1,435,148.66666666666669) translate(133.9506172839506 27.131944444444443)"/><path d="M380 226c0-3.3 2.7-6 6-6h188c3.3 0 6 2.7 6 6v51.67c0 3.3-2.7 6-6 6H386c-3.3 0-6-2.7-6-6z" stroke="#5e5e5e" stroke-width="3" fill="#fff"/><use xlink:href="#h" transform="matrix(1,0,0,1,385,225) translate(57.407407407407405 31.27777777777778)"/><path d="M580 227.83c0-3.3 2.7-6 6-6h188c3.3 0 6 2.7 6 6v48c0 3.32-2.7 6-6 6H586c-3.3 0-6-2.68-6-6z" stroke="#5e5e5e" stroke-width="3" fill="#fff"/><use xlink:href="#i" transform="matrix(1,0,0,1,585,226.83333333333334) translate(30.27777777777777 30.27777777777778)"/><path d="M780 227.83c0-3.3 2.7-6 6-6h188c3.3 0 6 2.7 6 6V274c0 3.3-2.7 6-6 6H786c-3.3 0-6-2.7-6-6z" stroke="#5e5e5e" stroke-width="3" fill="#fff"/><use xlink:href="#j" transform="matrix(1,0,0,1,785,226.83333333333334) translate(56.75925925925926 30.02777777777778)"/><path d="M980 226c0-3.3 2.7-6 6-6h188c3.3 0 6 2.7 6 6v48c0 3.3-2.7 6-6 6H986c-3.3 0-6-2.7-6-6z" stroke="#5e5e5e" stroke-width="3" fill="#fff"/><use xlink:href="#k" transform="matrix(1,0,0,1,985,225) translate(67.90123456790124 30.27777777777778)"/><path d="M180 287.83c0-3.3 2.7-6 6-6h988c3.3 0 6 2.7 6 6v210.34c0 3.3-2.7 6-6 6H186c-3.3 0-6-2.7-6-6z" stroke="#5e5e5e" stroke-width="3" fill="#fff"/><path d="M180 281.83l1000 222.34m0-222.34L180 504.17" stroke="#5e5e5e" stroke-width="3" fill="none"/><path d="M782.5 315c-12.43 0-22.5 10.07-22.5 22.5v30c0 12.43 10.07 22.5 22.5 22.5h343.33c12.43 0 22.5-10.07 22.5-22.5v-30c0-12.43-10.07-22.5-22.5-22.5z" stroke="#5e5e5e" stroke-width="3" fill="#fff"/><use xlink:href="#l" transform="matrix(1,0,0,1,770,322.5) translate(85.85802469135803 34.44444444444444)"/><use xlink:href="#m" transform="matrix(1,0,0,1,770,322.5) translate(146.29012345679013 34.44444444444444)"/><use xlink:href="#n" transform="matrix(1,0,0,1,770,322.5) translate(164.80864197530866 34.44444444444444)"/><path d="M180 510.17c0-3.32 2.7-6 6-6h988c3.3 0 6 2.68 6 6v33c0 3.3-2.7 6-6 6H186c-3.3 0-6-2.7-6-6z" stroke="#5e5e5e" stroke-width="3" fill="#fff"/><use xlink:href="#o" transform="matrix(1,0,0,1,185,509.16666666666674) translate(451.2037037037037 22.27777777777778)"/><path d="M191.67 566c0-3.3 2.68-6 6-6H574c3.3 0 6 2.7 6 6v103c0 3.3-2.7 6-6 6H197.67c-3.32 0-6-2.7-6-6z" stroke="#5e5e5e" stroke-width="3" fill="#fff"/><path d="M191.67 560L580 675m0-115L191.67 675" stroke="#5e5e5e" stroke-width="3" fill="none"/><path d="M200 691.83c0-3.3 2.7-6 6-6h918c3.3 0 6 2.7 6 6v68c0 3.32-2.7 6-6 6H206c-3.3 0-6-2.68-6-6z" stroke="#000" stroke-opacity="0" stroke-width="3" fill="#fff" fill-opacity="0"/><use xlink:href="#p" transform="matrix(1,0,0,1,205,690.8333333333331) translate(0 19.951822916666668)"/><use xlink:href="#q" transform="matrix(1,0,0,1,205,690.8333333333331) translate(60.89453125000001 19.951822916666668)"/><use xlink:href="#r" transform="matrix(1,0,0,1,205,690.8333333333331) translate(119.62890625000001 19.951822916666668)"/><use xlink:href="#s" transform="matrix(1,0,0,1,205,690.8333333333331) translate(170.80729166666669 19.951822916666668)"/><use xlink:href="#t" transform="matrix(1,0,0,1,205,690.8333333333331) translate(195.87239583333337 19.951822916666668)"/><use xlink:href="#u" transform="matrix(1,0,0,1,205,690.8333333333331) translate(250.1041666666667 19.951822916666668)"/><use xlink:href="#v" transform="matrix(1,0,0,1,205,690.8333333333331) translate(357.56510416666674 19.951822916666668)"/><use xlink:href="#w" transform="matrix(1,0,0,1,205,690.8333333333331) translate(449.31250000000006 19.951822916666668)"/><use xlink:href="#x" transform="matrix(1,0,0,1,205,690.8333333333331) translate(485.63411458333337 19.951822916666668)"/><use xlink:href="#y" transform="matrix(1,0,0,1,205,690.8333333333331) translate(536.4205729166667 19.951822916666668)"/><use xlink:href="#z" transform="matrix(1,0,0,1,205,690.8333333333331) translate(593.2864583333334 19.951822916666668)"/><use xlink:href="#A" transform="matrix(1,0,0,1,205,690.8333333333331) translate(654.0716145833334 19.951822916666668)"/><use xlink:href="#B" transform="matrix(1,0,0,1,205,690.8333333333331) translate(693.30078125 19.951822916666668)"/><use xlink:href="#C" transform="matrix(1,0,0,1,205,690.8333333333331) translate(715.2122395833334 19.951822916666668)"/><use xlink:href="#D" transform="matrix(1,0,0,1,205,690.8333333333331) translate(779.84375 19.951822916666668)"/><use xlink:href="#E" transform="matrix(1,0,0,1,205,690.8333333333331) translate(804.5716145833334 19.951822916666668)"/><use xlink:href="#F" transform="matrix(1,0,0,1,205,690.8333333333331) translate(0 45.372395833333336)"/><use xlink:href="#G" transform="matrix(1,0,0,1,205,690.8333333333331) translate(40.6328125 45.372395833333336)"/><use xlink:href="#H" transform="matrix(1,0,0,1,205,690.8333333333331) translate(105.41927083333333 45.372395833333336)"/><use xlink:href="#I" transform="matrix(1,0,0,1,205,690.8333333333331) translate(176.49479166666666 45.372395833333336)"/><use xlink:href="#J" transform="matrix(1,0,0,1,205,690.8333333333331) translate(281.71354166666663 45.372395833333336)"/><path d="M180 771.83c0-3.3 2.7-6 6-6h988c3.3 0 6 2.7 6 6v33c0 3.32-2.7 6-6 6H186c-3.3 0-6-2.68-6-6z" stroke="#5e5e5e" stroke-width="3" fill="#fff"/><use xlink:href="#K" transform="matrix(1,0,0,1,185,770.8333333333333) translate(468.7037037037037 22.27777777777778)"/><path d="M780 841c0-3.3 2.7-6 6-6h376.33c3.32 0 6 2.7 6 6v103c0 3.3-2.68 6-6 6H786c-3.3 0-6-2.7-6-6z" stroke="#5e5e5e" stroke-width="3" fill="#fff"/><path d="M780 835l388.33 115m0-115L780 950" stroke="#5e5e5e" stroke-width="3" fill="none"/><path d="M191.67 846c0-3.3 2.68-6 6-6h498c3.3 0 6 2.7 6 6v103c0 3.3-2.7 6-6 6h-498c-3.32 0-6-2.7-6-6z" stroke="#000" stroke-opacity="0" stroke-width="3" fill="#fff" fill-opacity="0"/><use xlink:href="#p" transform="matrix(1,0,0,1,196.66666666666663,845) translate(0 19.951822916666668)"/><use xlink:href="#q" transform="matrix(1,0,0,1,196.66666666666663,845) translate(60.89453125000001 19.951822916666668)"/><use xlink:href="#r" transform="matrix(1,0,0,1,196.66666666666663,845) translate(119.62890625000001 19.951822916666668)"/><use xlink:href="#s" transform="matrix(1,0,0,1,196.66666666666663,845) translate(170.80729166666669 19.951822916666668)"/><use xlink:href="#t" transform="matrix(1,0,0,1,196.66666666666663,845) translate(195.87239583333337 19.951822916666668)"/><use xlink:href="#u" transform="matrix(1,0,0,1,196.66666666666663,845) translate(250.1041666666667 19.951822916666668)"/><use xlink:href="#v" transform="matrix(1,0,0,1,196.66666666666663,845) translate(357.56510416666674 19.951822916666668)"/><use xlink:href="#L" transform="matrix(1,0,0,1,196.66666666666663,845) translate(449.31250000000006 19.951822916666668)"/><use xlink:href="#x" transform="matrix(1,0,0,1,196.66666666666663,845) translate(0 45.372395833333336)"/><use xlink:href="#y" transform="matrix(1,0,0,1,196.66666666666663,845) translate(50.786458333333336 45.372395833333336)"/><use xlink:href="#z" transform="matrix(1,0,0,1,196.66666666666663,845) translate(107.65234375000001 45.372395833333336)"/><use xlink:href="#A" transform="matrix(1,0,0,1,196.66666666666663,845) translate(168.43750000000003 45.372395833333336)"/><use xlink:href="#B" transform="matrix(1,0,0,1,196.66666666666663,845) translate(207.66666666666669 45.372395833333336)"/><use xlink:href="#C" transform="matrix(1,0,0,1,196.66666666666663,845) translate(229.57812500000003 45.372395833333336)"/><use xlink:href="#D" transform="matrix(1,0,0,1,196.66666666666663,845) translate(294.2096354166667 45.372395833333336)"/><use xlink:href="#M" transform="matrix(1,0,0,1,196.66666666666663,845) translate(318.9375 45.372395833333336)"/><use xlink:href="#N" transform="matrix(1,0,0,1,196.66666666666663,845) translate(420.2643229166667 45.372395833333336)"/><use xlink:href="#G" transform="matrix(1,0,0,1,196.66666666666663,845) translate(0 70.79296875)"/><use xlink:href="#H" transform="matrix(1,0,0,1,196.66666666666663,845) translate(64.78645833333333 70.79296875)"/><use xlink:href="#I" transform="matrix(1,0,0,1,196.66666666666663,845) translate(135.86197916666666 70.79296875)"/><use xlink:href="#J" transform="matrix(1,0,0,1,196.66666666666663,845) translate(241.08072916666666 70.79296875)"/><path d="M178.33 1054.44c0-3.32 2.7-6 6-6h986.34c3.3 0 6 2.68 6 6v33c0 3.3-2.7 6-6 6H184.33c-3.3 0-6-2.7-6-6z" stroke="#5e5e5e" stroke-width="3" fill="#fff"/><use xlink:href="#O" transform="matrix(1,0,0,1,183.33333333333337,1053.4375) translate(464.8703703703704 22.27777777777778)"/><path d="M191.67 1111c0-3.3 2.68-6 6-6H574c3.3 0 6 2.7 6 6v103c0 3.3-2.7 6-6 6H197.67c-3.32 0-6-2.7-6-6z" stroke="#5e5e5e" stroke-width="3" fill="#fff"/><path d="M191.67 1105L580 1220m0-115l-388.33 115" stroke="#5e5e5e" stroke-width="3" fill="none"/><path d="M650 1111c0-3.3 2.7-6 6-6h501.33c3.32 0 6 2.7 6 6v103c0 3.3-2.68 6-6 6H656c-3.3 0-6-2.7-6-6z" stroke="#000" stroke-opacity="0" stroke-width="3" fill="#fff" fill-opacity="0"/><use xlink:href="#p" transform="matrix(1,0,0,1,655,1110) translate(0 19.951822916666668)"/><use xlink:href="#q" transform="matrix(1,0,0,1,655,1110) translate(60.89453125000001 19.951822916666668)"/><use xlink:href="#r" transform="matrix(1,0,0,1,655,1110) translate(119.62890625000001 19.951822916666668)"/><use xlink:href="#s" transform="matrix(1,0,0,1,655,1110) translate(170.80729166666669 19.951822916666668)"/><use xlink:href="#t" transform="matrix(1,0,0,1,655,1110) translate(195.87239583333337 19.951822916666668)"/><use xlink:href="#u" transform="matrix(1,0,0,1,655,1110) translate(250.1041666666667 19.951822916666668)"/><use xlink:href="#v" transform="matrix(1,0,0,1,655,1110) translate(357.56510416666674 19.951822916666668)"/><use xlink:href="#L" transform="matrix(1,0,0,1,655,1110) translate(449.31250000000006 19.951822916666668)"/><use xlink:href="#x" transform="matrix(1,0,0,1,655,1110) translate(0 45.372395833333336)"/><use xlink:href="#y" transform="matrix(1,0,0,1,655,1110) translate(50.786458333333336 45.372395833333336)"/><use xlink:href="#z" transform="matrix(1,0,0,1,655,1110) translate(107.65234375000001 45.372395833333336)"/><use xlink:href="#A" transform="matrix(1,0,0,1,655,1110) translate(168.43750000000003 45.372395833333336)"/><use xlink:href="#B" transform="matrix(1,0,0,1,655,1110) translate(207.66666666666669 45.372395833333336)"/><use xlink:href="#C" transform="matrix(1,0,0,1,655,1110) translate(229.57812500000003 45.372395833333336)"/><use xlink:href="#D" transform="matrix(1,0,0,1,655,1110) translate(294.2096354166667 45.372395833333336)"/><use xlink:href="#M" transform="matrix(1,0,0,1,655,1110) translate(318.9375 45.372395833333336)"/><use xlink:href="#N" transform="matrix(1,0,0,1,655,1110) translate(420.2643229166667 45.372395833333336)"/><use xlink:href="#G" transform="matrix(1,0,0,1,655,1110) translate(0 70.79296875)"/><use xlink:href="#H" transform="matrix(1,0,0,1,655,1110) translate(64.78645833333333 70.79296875)"/><use xlink:href="#I" transform="matrix(1,0,0,1,655,1110) translate(135.86197916666666 70.79296875)"/><use xlink:href="#J" transform="matrix(1,0,0,1,655,1110) translate(241.08072916666666 70.79296875)"/><path d="M178.33 1306c0-3.3 2.7-6 6-6h478c3.32 0 6 2.7 6 6v33c0 3.3-2.68 6-6 6h-478c-3.3 0-6-2.7-6-6z" stroke="#5e5e5e" stroke-width="3" fill="#fff"/><g><use xlink:href="#P" transform="matrix(1,0,0,1,183.33333333333326,1305) translate(158.2716049382716 22.27777777777778)"/><use xlink:href="#Q" transform="matrix(1,0,0,1,183.33333333333326,1305) translate(238.33333333333331 22.27777777777778)"/></g><path d="M180 1351c0-3.3 2.7-6 6-6h476.33c3.32 0 6 2.7 6 6v108c0 3.3-2.68 6-6 6H186c-3.3 0-6-2.7-6-6z" stroke="#5e5e5e" stroke-width="3" fill="#fff"/><g><use xlink:href="#R" transform="matrix(1,0,0,1,185,1350) translate(164.90123456790124 31.52777777777778)"/><use xlink:href="#S" transform="matrix(1,0,0,1,185,1350) translate(251.1358024691358 31.52777777777778)"/><use xlink:href="#T" transform="matrix(1,0,0,1,185,1350) translate(152 58.19444444444445)"/><use xlink:href="#U" transform="matrix(1,0,0,1,185,1350) translate(288.7901234567901 58.19444444444445)"/><use xlink:href="#V" transform="matrix(1,0,0,1,185,1350) translate(180.33333333333334 84.86111111111111)"/><use xlink:href="#W" transform="matrix(1,0,0,1,185,1350) translate(243.17283950617286 84.86111111111111)"/></g><path d="M668.33 1306c0-3.3 2.7-6 6-6h488c3.32 0 6 2.7 6 6v33c0 3.3-2.68 6-6 6h-488c-3.3 0-6-2.7-6-6z" stroke="#5e5e5e" stroke-width="3" fill="#fff"/><g><use xlink:href="#X" transform="matrix(1,0,0,1,673.3333333333333,1305) translate(171.51851851851853 22.27777777777778)"/><use xlink:href="#Y" transform="matrix(1,0,0,1,673.3333333333333,1305) translate(233.1851851851852 22.27777777777778)"/></g><path d="M668.33 1351c0-3.3 2.7-6 6-6h488c3.32 0 6 2.7 6 6v108c0 3.3-2.68 6-6 6h-488c-3.3 0-6-2.7-6-6z" stroke="#5e5e5e" stroke-width="3" fill="#fff"/><path d="M879.58 1386c0-3.3 2.7-6 6-6h43c3.32 0 6 2.7 6 6v23c0 3.3-2.68 6-6 6h-43c-3.3 0-6-2.7-6-6z" stroke="#5e5e5e" stroke-width="3" fill="#fff"/><path d="M879.58 1380l55 35m0-35l-55 35" stroke="#5e5e5e" stroke-width="3" fill="none"/><path d="M823.75 1386c0-3.3 2.7-6 6-6h43c3.3 0 6 2.7 6 6v23c0 3.3-2.7 6-6 6h-43c-3.3 0-6-2.7-6-6z" stroke="#5e5e5e" stroke-width="3" fill="#fff"/><path d="M823.75 1380l55 35m0-35l-55 35" stroke="#5e5e5e" stroke-width="3" fill="none"/><path d="M935.42 1386c0-3.3 2.68-6 6-6h43c3.3 0 6 2.7 6 6v23c0 3.3-2.7 6-6 6h-43c-3.32 0-6-2.7-6-6z" stroke="#5e5e5e" stroke-width="3" fill="#fff"/><path d="M935.42 1380l55 35m0-35l-55 35" stroke="#5e5e5e" stroke-width="3" fill="none"/><path d="M820 1351c0-3.3 2.7-6 6-6h43.83c3.32 0 6 2.7 6 6v23c0 3.3-2.68 6-6 6H826c-3.3 0-6-2.7-6-6z" stroke="#000" stroke-opacity="0" stroke-width="3" fill="#fff" fill-opacity="0"/><g><use xlink:href="#Z" transform="matrix(1,0,0,1,825,1350) translate(1.4259259259259274 19.34027777777778)"/></g><path d="M878.75 1351c0-3.3 2.7-6 6-6h43.83c3.32 0 6 2.7 6 6v23c0 3.3-2.68 6-6 6h-43.83c-3.3 0-6-2.7-6-6z" stroke="#000" stroke-opacity="0" stroke-width="3" fill="#fff" fill-opacity="0"/><g><use xlink:href="#aa" transform="matrix(1,0,0,1,883.7500000000001,1350) translate(4.296296296296298 19.34027777777778)"/></g><path d="M934.58 1351c0-3.3 2.7-6 6-6h43.84c3.3 0 6 2.7 6 6v23c0 3.3-2.7 6-6 6h-43.84c-3.3 0-6-2.7-6-6z" stroke="#000" stroke-opacity="0" stroke-width="3" fill="#fff" fill-opacity="0"/><g><use xlink:href="#ab" transform="matrix(1,0,0,1,939.5833333333335,1350) translate(0.40740740740740833 19.34027777777778)"/></g><path d="M823.75 1421c0-3.3 2.7-6 6-6h43.83c3.32 0 6 2.7 6 6v23c0 3.3-2.68 6-6 6h-43.83c-3.3 0-6-2.7-6-6z" stroke="#000" stroke-opacity="0" stroke-width="3" fill="#fff" fill-opacity="0"/><g><use xlink:href="#ac" transform="matrix(1,0,0,1,828.7500000000001,1420) translate(3.8950617283950635 19.34027777777778)"/></g><path d="M875.83 1421c0-3.3 2.7-6 6-6h43.84c3.3 0 6 2.7 6 6v23c0 3.3-2.7 6-6 6h-43.84c-3.3 0-6-2.7-6-6z" stroke="#000" stroke-opacity="0" stroke-width="3" fill="#fff" fill-opacity="0"/><g><use xlink:href="#ad" transform="matrix(1,0,0,1,880.8333333333333,1420) translate(3.8950617283950635 19.34027777777778)"/></g><path d="M931.67 1421c0-3.3 2.68-6 6-6h43.83c3.3 0 6 2.7 6 6v23c0 3.3-2.7 6-6 6h-43.83c-3.32 0-6-2.7-6-6z" stroke="#000" stroke-opacity="0" stroke-width="3" fill="#fff" fill-opacity="0"/><g><use xlink:href="#ac" transform="matrix(1,0,0,1,936.6666666666665,1420) translate(3.8950617283950635 19.34027777777778)"/></g><path d="M40 1471c0-3.3 2.7-6 6-6h1263c3.3 0 6 2.7 6 6v138c0 3.3-2.7 6-6 6H46c-3.3 0-6-2.7-6-6z" stroke="#5e5e5e" stroke-width="3" fill="#fff"/><path d="M448.75 1486c0-3.3 2.7-6 6-6h423c3.3 0 6 2.7 6 6v23c0 3.3-2.7 6-6 6h-423c-3.3 0-6-2.7-6-6z" stroke="#000" stroke-opacity="0" stroke-width="3" fill="#fff" fill-opacity="0"/><g><use xlink:href="#ae" transform="matrix(1,0,0,1,453.75,1485) translate(93.78395061728398 15.784722222222221)"/><use xlink:href="#af" transform="matrix(1,0,0,1,453.75,1485) translate(174.62345679012344 15.784722222222221)"/><use xlink:href="#ag" transform="matrix(1,0,0,1,453.75,1485) translate(233.8827160493827 15.784722222222221)"/><use xlink:href="#ah" transform="matrix(1,0,0,1,453.75,1485) translate(243.41358024691357 15.784722222222221)"/><use xlink:href="#ai" transform="matrix(1,0,0,1,453.75,1485) translate(309.537037037037 15.784722222222221)"/></g><path d="M583.75 1521c0-3.3 2.7-6 6-6h23c3.3 0 6 2.7 6 6v18c0 3.3-2.7 6-6 6h-23c-3.3 0-6-2.7-6-6z" stroke="#5e5e5e" stroke-width="3" fill="#fff"/><path d="M583.75 1515l35 30m0-30l-35 30" stroke="#5e5e5e" stroke-width="3" fill="none"/><path d="M618.75 1521c0-3.3 2.7-6 6-6h173.83c3.32 0 6 2.7 6 6v18c0 3.3-2.68 6-6 6H624.75c-3.3 0-6-2.7-6-6z" stroke="#000" stroke-opacity="0" stroke-width="3" fill="#fff" fill-opacity="0"/><g><use xlink:href="#aj" transform="matrix(1,0,0,1,623.75,1520) translate(0 14.222222222222221)"/></g><path d="M583.75 1549.75c0-3.3 2.7-6 6-6h23c3.3 0 6 2.7 6 6v18c0 3.3-2.7 6-6 6h-23c-3.3 0-6-2.7-6-6z" stroke="#5e5e5e" stroke-width="3" fill="#fff"/><path d="M583.75 1543.75l35 30m0-30l-35 30" stroke="#5e5e5e" stroke-width="3" fill="none"/><path d="M618.75 1551c0-3.3 2.7-6 6-6h173.83c3.32 0 6 2.7 6 6v18c0 3.3-2.68 6-6 6H624.75c-3.3 0-6-2.7-6-6z" stroke="#000" stroke-opacity="0" stroke-width="3" fill="#fff" fill-opacity="0"/><g><use xlink:href="#ak" transform="matrix(1,0,0,1,623.75,1550) translate(0 14.222222222222221)"/></g><path d="M583.75 1581c0-3.3 2.7-6 6-6h23c3.3 0 6 2.7 6 6v18c0 3.3-2.7 6-6 6h-23c-3.3 0-6-2.7-6-6z" stroke="#5e5e5e" stroke-width="3" fill="#fff"/><path d="M583.75 1575l35 30m0-30l-35 30" stroke="#5e5e5e" stroke-width="3" fill="none"/><path d="M618.75 1581c0-3.3 2.7-6 6-6h173.83c3.32 0 6 2.7 6 6v18c0 3.3-2.68 6-6 6H624.75c-3.3 0-6-2.7-6-6z" stroke="#000" stroke-opacity="0" stroke-width="3" fill="#fff" fill-opacity="0"/><g><use xlink:href="#al" transform="matrix(1,0,0,1,623.75,1580) translate(0 14.222222222222221)"/></g><path d="M668.33 566c0-3.3 2.7-6 6-6H1174c3.3 0 6 2.7 6 6v103c0 3.3-2.7 6-6 6H674.33c-3.3 0-6-2.7-6-6z" stroke="#000" stroke-opacity="0" stroke-width="3" fill="#fff" fill-opacity="0"/><g><use xlink:href="#p" transform="matrix(1,0,0,1,673.3333333333333,565) translate(0 19.951822916666668)"/><use xlink:href="#q" transform="matrix(1,0,0,1,673.3333333333333,565) translate(60.89453125000001 19.951822916666668)"/><use xlink:href="#r" transform="matrix(1,0,0,1,673.3333333333333,565) translate(119.62890625000001 19.951822916666668)"/><use xlink:href="#s" transform="matrix(1,0,0,1,673.3333333333333,565) translate(170.80729166666669 19.951822916666668)"/><use xlink:href="#t" transform="matrix(1,0,0,1,673.3333333333333,565) translate(195.87239583333337 19.951822916666668)"/><use xlink:href="#u" transform="matrix(1,0,0,1,673.3333333333333,565) translate(250.1041666666667 19.951822916666668)"/><use xlink:href="#v" transform="matrix(1,0,0,1,673.3333333333333,565) translate(357.56510416666674 19.951822916666668)"/><use xlink:href="#L" transform="matrix(1,0,0,1,673.3333333333333,565) translate(449.31250000000006 19.951822916666668)"/><use xlink:href="#x" transform="matrix(1,0,0,1,673.3333333333333,565) translate(0 45.372395833333336)"/><use xlink:href="#y" transform="matrix(1,0,0,1,673.3333333333333,565) translate(50.786458333333336 45.372395833333336)"/><use xlink:href="#z" transform="matrix(1,0,0,1,673.3333333333333,565) translate(107.65234375000001 45.372395833333336)"/><use xlink:href="#A" transform="matrix(1,0,0,1,673.3333333333333,565) translate(168.43750000000003 45.372395833333336)"/><use xlink:href="#B" transform="matrix(1,0,0,1,673.3333333333333,565) translate(207.66666666666669 45.372395833333336)"/><use xlink:href="#C" transform="matrix(1,0,0,1,673.3333333333333,565) translate(229.57812500000003 45.372395833333336)"/><use xlink:href="#D" transform="matrix(1,0,0,1,673.3333333333333,565) translate(294.2096354166667 45.372395833333336)"/><use xlink:href="#M" transform="matrix(1,0,0,1,673.3333333333333,565) translate(318.9375 45.372395833333336)"/><use xlink:href="#N" transform="matrix(1,0,0,1,673.3333333333333,565) translate(420.2643229166667 45.372395833333336)"/><use xlink:href="#G" transform="matrix(1,0,0,1,673.3333333333333,565) translate(0 70.79296875)"/><use xlink:href="#H" transform="matrix(1,0,0,1,673.3333333333333,565) translate(64.78645833333333 70.79296875)"/><use xlink:href="#I" transform="matrix(1,0,0,1,673.3333333333333,565) translate(135.86197916666666 70.79296875)"/><use xlink:href="#J" transform="matrix(1,0,0,1,673.3333333333333,565) translate(241.08072916666666 70.79296875)"/></g><path d="M200 962.88c0-3.32 2.7-6 6-6h931.33c3.32 0 6 2.68 6 6v68c0 3.3-2.68 6-6 6H206c-3.3 0-6-2.7-6-6z" stroke="#000" stroke-opacity="0" stroke-width="3" fill="#fff" fill-opacity="0"/><g><use xlink:href="#p" transform="matrix(1,0,0,1,205,961.875) translate(0 19.951822916666668)"/><use xlink:href="#q" transform="matrix(1,0,0,1,205,961.875) translate(60.89453125000001 19.951822916666668)"/><use xlink:href="#r" transform="matrix(1,0,0,1,205,961.875) translate(119.62890625000001 19.951822916666668)"/><use xlink:href="#s" transform="matrix(1,0,0,1,205,961.875) translate(170.80729166666669 19.951822916666668)"/><use xlink:href="#t" transform="matrix(1,0,0,1,205,961.875) translate(195.87239583333337 19.951822916666668)"/><use xlink:href="#u" transform="matrix(1,0,0,1,205,961.875) translate(250.1041666666667 19.951822916666668)"/><use xlink:href="#v" transform="matrix(1,0,0,1,205,961.875) translate(357.56510416666674 19.951822916666668)"/><use xlink:href="#w" transform="matrix(1,0,0,1,205,961.875) translate(449.31250000000006 19.951822916666668)"/><use xlink:href="#x" transform="matrix(1,0,0,1,205,961.875) translate(485.63411458333337 19.951822916666668)"/><use xlink:href="#y" transform="matrix(1,0,0,1,205,961.875) translate(536.4205729166667 19.951822916666668)"/><use xlink:href="#z" transform="matrix(1,0,0,1,205,961.875) translate(593.2864583333334 19.951822916666668)"/><use xlink:href="#A" transform="matrix(1,0,0,1,205,961.875) translate(654.0716145833334 19.951822916666668)"/><use xlink:href="#B" transform="matrix(1,0,0,1,205,961.875) translate(693.30078125 19.951822916666668)"/><use xlink:href="#C" transform="matrix(1,0,0,1,205,961.875) translate(715.2122395833334 19.951822916666668)"/><use xlink:href="#D" transform="matrix(1,0,0,1,205,961.875) translate(779.84375 19.951822916666668)"/><use xlink:href="#E" transform="matrix(1,0,0,1,205,961.875) translate(804.5716145833334 19.951822916666668)"/><use xlink:href="#F" transform="matrix(1,0,0,1,205,961.875) translate(0 45.372395833333336)"/><use xlink:href="#G" transform="matrix(1,0,0,1,205,961.875) translate(40.6328125 45.372395833333336)"/><use xlink:href="#H" transform="matrix(1,0,0,1,205,961.875) translate(105.41927083333333 45.372395833333336)"/><use xlink:href="#I" transform="matrix(1,0,0,1,205,961.875) translate(176.49479166666666 45.372395833333336)"/><use xlink:href="#J" transform="matrix(1,0,0,1,205,961.875) translate(281.71354166666663 45.372395833333336)"/></g><path d="M180 1246c0-3.3 2.7-6 6-6h918c3.3 0 6 2.7 6 6v68c0 3.3-2.7 6-6 6H186c-3.3 0-6-2.7-6-6z" stroke="#000" stroke-opacity="0" stroke-width="3" fill="#fff" fill-opacity="0"/><g><use xlink:href="#p" transform="matrix(1,0,0,1,185,1245) translate(0 19.951822916666668)"/><use xlink:href="#q" transform="matrix(1,0,0,1,185,1245) translate(60.89453125000001 19.951822916666668)"/><use xlink:href="#r" transform="matrix(1,0,0,1,185,1245) translate(119.62890625000001 19.951822916666668)"/><use xlink:href="#s" transform="matrix(1,0,0,1,185,1245) translate(170.80729166666669 19.951822916666668)"/><use xlink:href="#t" transform="matrix(1,0,0,1,185,1245) translate(195.87239583333337 19.951822916666668)"/><use xlink:href="#u" transform="matrix(1,0,0,1,185,1245) translate(250.1041666666667 19.951822916666668)"/><use xlink:href="#v" transform="matrix(1,0,0,1,185,1245) translate(357.56510416666674 19.951822916666668)"/><use xlink:href="#w" transform="matrix(1,0,0,1,185,1245) translate(449.31250000000006 19.951822916666668)"/><use xlink:href="#x" transform="matrix(1,0,0,1,185,1245) translate(485.63411458333337 19.951822916666668)"/><use xlink:href="#y" transform="matrix(1,0,0,1,185,1245) translate(536.4205729166667 19.951822916666668)"/><use xlink:href="#z" transform="matrix(1,0,0,1,185,1245) translate(593.2864583333334 19.951822916666668)"/><use xlink:href="#A" transform="matrix(1,0,0,1,185,1245) translate(654.0716145833334 19.951822916666668)"/><use xlink:href="#B" transform="matrix(1,0,0,1,185,1245) translate(693.30078125 19.951822916666668)"/><use xlink:href="#C" transform="matrix(1,0,0,1,185,1245) translate(715.2122395833334 19.951822916666668)"/><use xlink:href="#D" transform="matrix(1,0,0,1,185,1245) translate(779.84375 19.951822916666668)"/><use xlink:href="#E" transform="matrix(1,0,0,1,185,1245) translate(804.5716145833334 19.951822916666668)"/><use xlink:href="#F" transform="matrix(1,0,0,1,185,1245) translate(0 45.372395833333336)"/><use xlink:href="#G" transform="matrix(1,0,0,1,185,1245) translate(40.6328125 45.372395833333336)"/><use xlink:href="#H" transform="matrix(1,0,0,1,185,1245) translate(105.41927083333333 45.372395833333336)"/><use xlink:href="#I" transform="matrix(1,0,0,1,185,1245) translate(176.49479166666666 45.372395833333336)"/><use xlink:href="#J" transform="matrix(1,0,0,1,185,1245) translate(281.71354166666663 45.372395833333336)"/></g><defs><path fill="#333" d="M127-220V0H93v-220H8v-28h204v28h-85" id="am"/><path fill="#333" d="M24-231v-30h32v30H24zM24 0v-190h32V0H24" id="an"/><path fill="#333" d="M59-47c-2 24 18 29 38 22v24C64 9 27 4 27-40v-127H5v-23h24l9-43h21v43h35v23H59v120" id="ao"/><path fill="#333" d="M24 0v-261h32V0H24" id="ap"/><path fill="#333" d="M100-194c63 0 86 42 84 106H49c0 40 14 67 53 68 26 1 43-12 49-29l28 8c-11 28-37 45-77 45C44 4 14-33 15-96c1-61 26-98 85-98zm52 81c6-60-76-77-97-28-3 7-6 17-6 28h103" id="aq"/><g id="a"><use transform="matrix(0.06172839506172839,0,0,0.06172839506172839,0,0)" xlink:href="#am"/><use transform="matrix(0.06172839506172839,0,0,0.06172839506172839,12.716049382716047,0)" xlink:href="#an"/><use transform="matrix(0.06172839506172839,0,0,0.06172839506172839,17.592592592592588,0)" xlink:href="#ao"/><use transform="matrix(0.06172839506172839,0,0,0.06172839506172839,23.765432098765427,0)" xlink:href="#ap"/><use transform="matrix(0.06172839506172839,0,0,0.06172839506172839,28.641975308641968,0)" xlink:href="#aq"/></g><path fill="#333" d="M106-169C34-169 62-67 57 0H25v-261h32l-1 103c12-21 28-36 61-36 89 0 53 116 60 194h-32v-121c2-32-8-49-39-48" id="ar"/><path fill="#333" d="M115-194c55 1 70 41 70 98S169 2 115 4C84 4 66-9 55-30l1 105H24l-1-265h31l2 30c10-21 28-34 59-34zm-8 174c40 0 45-34 45-75s-6-73-45-74c-42 0-51 32-51 76 0 43 10 73 51 73" id="as"/><path fill="#333" d="M135-143c-3-34-86-38-87 0 15 53 115 12 119 90S17 21 10-45l28-5c4 36 97 45 98 0-10-56-113-15-118-90-4-57 82-63 122-42 12 7 21 19 24 35" id="at"/><path fill="#333" d="M33-154v-36h34v36H33zM33 0v-36h34V0H33" id="au"/><path fill="#333" d="M0 4l72-265h28L28 4H0" id="av"/><path fill="#333" d="M96-169c-40 0-48 33-48 73s9 75 48 75c24 0 41-14 43-38l32 2c-6 37-31 61-74 61-59 0-76-41-82-99-10-93 101-131 147-64 4 7 5 14 7 22l-32 3c-4-21-16-35-41-35" id="aw"/><path fill="#333" d="M100-194c62-1 85 37 85 99 1 63-27 99-86 99S16-35 15-95c0-66 28-99 85-99zM99-20c44 1 53-31 53-75 0-43-8-75-51-75s-53 32-53 75 10 74 51 75" id="ax"/><path fill="#333" d="M33 0v-38h34V0H33" id="ay"/><path fill="#333" d="M210-169c-67 3-38 105-44 169h-31v-121c0-29-5-50-35-48C34-165 62-65 56 0H25l-1-190h30c1 10-1 24 2 32 10-44 99-50 107 0 11-21 27-35 58-36 85-2 47 119 55 194h-31v-121c0-29-5-49-35-48" id="az"/><g id="b"><use transform="matrix(0.06172839506172839,0,0,0.06172839506172839,0,0)" xlink:href="#ar"/><use transform="matrix(0.06172839506172839,0,0,0.06172839506172839,12.345679012345679,0)" xlink:href="#ao"/><use transform="matrix(0.06172839506172839,0,0,0.06172839506172839,18.51851851851852,0)" xlink:href="#ao"/><use transform="matrix(0.06172839506172839,0,0,0.06172839506172839,24.691358024691358,0)" xlink:href="#as"/><use transform="matrix(0.06172839506172839,0,0,0.06172839506172839,37.03703703703704,0)" xlink:href="#at"/><use transform="matrix(0.06172839506172839,0,0,0.06172839506172839,48.14814814814815,0)" xlink:href="#au"/><use transform="matrix(0.06172839506172839,0,0,0.06172839506172839,54.320987654320994,0)" xlink:href="#av"/><use transform="matrix(0.06172839506172839,0,0,0.06172839506172839,60.49382716049384,0)" xlink:href="#av"/><use transform="matrix(0.06172839506172839,0,0,0.06172839506172839,66.66666666666667,0)" xlink:href="#at"/><use transform="matrix(0.06172839506172839,0,0,0.06172839506172839,77.77777777777779,0)" xlink:href="#aw"/><use transform="matrix(0.06172839506172839,0,0,0.06172839506172839,88.8888888888889,0)" xlink:href="#ax"/><use transform="matrix(0.06172839506172839,0,0,0.06172839506172839,101.23456790123458,0)" xlink:href="#ax"/><use transform="matrix(0.06172839506172839,0,0,0.06172839506172839,113.58024691358027,0)" xlink:href="#ao"/><use transform="matrix(0.06172839506172839,0,0,0.06172839506172839,119.7530864197531,0)" xlink:href="#at"/><use transform="matrix(0.06172839506172839,0,0,0.06172839506172839,130.8641975308642,0)" xlink:href="#ay"/><use transform="matrix(0.06172839506172839,0,0,0.06172839506172839,137.03703703703704,0)" xlink:href="#aw"/><use transform="matrix(0.06172839506172839,0,0,0.06172839506172839,148.14814814814815,0)" xlink:href="#ax"/><use transform="matrix(0.06172839506172839,0,0,0.06172839506172839,160.49382716049382,0)" xlink:href="#az"/></g><path fill="#333" d="M197 0v-115H63V0H30v-248h33v105h134v-105h34V0h-34" id="aA"/><g id="c"><use transform="matrix(0.06172839506172839,0,0,0.06172839506172839,0,0)" xlink:href="#aA"/><use transform="matrix(0.06172839506172839,0,0,0.06172839506172839,15.987654320987653,0)" xlink:href="#ax"/><use transform="matrix(0.06172839506172839,0,0,0.06172839506172839,28.333333333333332,0)" xlink:href="#az"/><use transform="matrix(0.06172839506172839,0,0,0.06172839506172839,46.79012345679012,0)" xlink:href="#aq"/></g><path fill="#333" d="M169-182c-1-43-94-46-97-3 18 66 151 10 154 114 3 95-165 93-204 36-6-8-10-19-12-30l50-8c3 46 112 56 116 5-17-69-150-10-154-114-4-87 153-88 188-35 5 8 8 18 10 28" id="aB"/><path fill="#333" d="M190-63c-7 42-38 67-86 67-59 0-84-38-90-98-12-110 154-137 174-36l-49 2c-2-19-15-32-35-32-30 0-35 28-38 64-6 74 65 87 74 30" id="aC"/><path fill="#333" d="M110-194c64 0 96 36 96 99 0 64-35 99-97 99-61 0-95-36-95-99 0-62 34-99 96-99zm-1 164c35 0 45-28 45-65 0-40-10-65-43-65-34 0-45 26-45 65 0 36 10 65 43 65" id="aD"/><path fill="#333" d="M115-3C79 11 28 4 28-45v-112H4v-33h27l15-45h31v45h36v33H77v99c-1 23 16 31 38 25v30" id="aE"/><path fill="#333" d="M137-138c1-29-70-34-71-4 15 46 118 7 119 86 1 83-164 76-172 9l43-7c4 19 20 25 44 25 33 8 57-30 24-41C81-84 22-81 20-136c-2-80 154-74 161-7" id="aF"/><g id="d"><use transform="matrix(0.08641975308641973,0,0,0.08641975308641973,0,0)" xlink:href="#aB"/><use transform="matrix(0.08641975308641973,0,0,0.08641975308641973,20.740740740740737,0)" xlink:href="#aC"/><use transform="matrix(0.08641975308641973,0,0,0.08641975308641973,38.02469135802468,0)" xlink:href="#aD"/><use transform="matrix(0.08641975308641973,0,0,0.08641975308641973,56.950617283950606,0)" xlink:href="#aD"/><use transform="matrix(0.08641975308641973,0,0,0.08641975308641973,75.87654320987653,0)" xlink:href="#aE"/><use transform="matrix(0.08641975308641973,0,0,0.08641975308641973,86.16049382716048,0)" xlink:href="#aF"/></g><path fill="#333" d="M185-189c-5-48-123-54-124 2 14 75 158 14 163 119 3 78-121 87-175 55-17-10-28-26-33-46l33-7c5 56 141 63 141-1 0-78-155-14-162-118-5-82 145-84 179-34 5 7 8 16 11 25" id="aG"/><path fill="#333" d="M117-194c89-4 53 116 60 194h-32v-121c0-31-8-49-39-48C34-167 62-67 57 0H25l-1-190h30c1 10-1 24 2 32 11-22 29-35 61-36" id="aH"/><path fill="#333" d="M177-190C167-65 218 103 67 71c-23-6-38-20-44-43l32-5c15 47 100 32 89-28v-30C133-14 115 1 83 1 29 1 15-40 15-95c0-56 16-97 71-98 29-1 48 16 59 35 1-10 0-23 2-32h30zM94-22c36 0 50-32 50-73 0-42-14-75-50-75-39 0-46 34-46 75s6 73 46 73" id="aI"/><g id="e"><use transform="matrix(0.04320987654320987,0,0,0.04320987654320987,0,0)" xlink:href="#aG"/><use transform="matrix(0.04320987654320987,0,0,0.04320987654320987,10.370370370370368,0)" xlink:href="#aw"/><use transform="matrix(0.04320987654320987,0,0,0.04320987654320987,18.148148148148145,0)" xlink:href="#ax"/><use transform="matrix(0.04320987654320987,0,0,0.04320987654320987,26.790123456790116,0)" xlink:href="#ax"/><use transform="matrix(0.04320987654320987,0,0,0.04320987654320987,35.432098765432094,0)" xlink:href="#ao"/><use transform="matrix(0.04320987654320987,0,0,0.04320987654320987,39.75308641975308,0)" xlink:href="#an"/><use transform="matrix(0.04320987654320987,0,0,0.04320987654320987,43.166666666666664,0)" xlink:href="#aH"/><use transform="matrix(0.04320987654320987,0,0,0.04320987654320987,51.80864197530864,0)" xlink:href="#aI"/></g><path fill="#333" d="M205 0l-28-72H64L36 0H1l101-248h38L239 0h-34zm-38-99l-47-123c-12 45-31 82-46 123h93" id="aJ"/><path fill="#333" d="M114-163C36-179 61-72 57 0H25l-1-190h30c1 12-1 29 2 39 6-27 23-49 58-41v29" id="aK"/><path fill="#333" d="M84 4C-5 8 30-112 23-190h32v120c0 31 7 50 39 49 72-2 45-101 50-169h31l1 190h-30c-1-10 1-25-2-33-11 22-28 36-60 37" id="aL"/><path fill="#333" d="M85-194c31 0 48 13 60 33l-1-100h32l1 261h-30c-2-10 0-23-3-31C134-8 116 4 85 4 32 4 16-35 15-94c0-66 23-100 70-100zm9 24c-40 0-46 34-46 75 0 40 6 74 45 74 42 0 51-32 51-76 0-42-9-74-50-73" id="aM"/><g id="f"><use transform="matrix(0.04320987654320987,0,0,0.04320987654320987,0,0)" xlink:href="#aJ"/><use transform="matrix(0.04320987654320987,0,0,0.04320987654320987,10.370370370370368,0)" xlink:href="#aK"/><use transform="matrix(0.04320987654320987,0,0,0.04320987654320987,15.512345679012343,0)" xlink:href="#ax"/><use transform="matrix(0.04320987654320987,0,0,0.04320987654320987,24.154320987654316,0)" xlink:href="#aL"/><use transform="matrix(0.04320987654320987,0,0,0.04320987654320987,32.79629629629629,0)" xlink:href="#aH"/><use transform="matrix(0.04320987654320987,0,0,0.04320987654320987,41.438271604938265,0)" xlink:href="#aM"/></g><path fill="#333" d="M30-248c87 1 191-15 191 75 0 78-77 80-158 76V0H30v-248zm33 125c57 0 124 11 124-50 0-59-68-47-124-48v98" id="aN"/><path fill="#333" d="M141-36C126-15 110 5 73 4 37 3 15-17 15-53c-1-64 63-63 125-63 3-35-9-54-41-54-24 1-41 7-42 31l-33-3c5-37 33-52 76-52 45 0 72 20 72 64v82c-1 20 7 32 28 27v20c-31 9-61-2-59-35zM48-53c0 20 12 33 32 33 41-3 63-29 60-74-43 2-92-5-92 41" id="aO"/><g id="g"><use transform="matrix(0.04320987654320987,0,0,0.04320987654320987,0,0)" xlink:href="#aN"/><use transform="matrix(0.04320987654320987,0,0,0.04320987654320987,10.370370370370368,0)" xlink:href="#aO"/><use transform="matrix(0.04320987654320987,0,0,0.04320987654320987,19.01234567901234,0)" xlink:href="#aK"/><use transform="matrix(0.04320987654320987,0,0,0.04320987654320987,24.154320987654316,0)" xlink:href="#aO"/><use transform="matrix(0.04320987654320987,0,0,0.04320987654320987,32.79629629629629,0)" xlink:href="#aM"/><use transform="matrix(0.04320987654320987,0,0,0.04320987654320987,41.438271604938265,0)" xlink:href="#an"/><use transform="matrix(0.04320987654320987,0,0,0.04320987654320987,44.851851851851855,0)" xlink:href="#at"/><use transform="matrix(0.04320987654320987,0,0,0.04320987654320987,52.629629629629626,0)" xlink:href="#aq"/></g><path fill="#333" d="M233-177c-1 41-23 64-60 70L243 0h-38l-65-103H63V0H30v-248c88 3 205-21 203 71zM63-129c60-2 137 13 137-47 0-61-80-42-137-45v92" id="aP"/><g id="h"><use transform="matrix(0.06172839506172839,0,0,0.06172839506172839,0,0)" xlink:href="#aP"/><use transform="matrix(0.06172839506172839,0,0,0.06172839506172839,15.987654320987653,0)" xlink:href="#aq"/><use transform="matrix(0.06172839506172839,0,0,0.06172839506172839,28.333333333333332,0)" xlink:href="#aH"/><use transform="matrix(0.06172839506172839,0,0,0.06172839506172839,40.67901234567901,0)" xlink:href="#ao"/><use transform="matrix(0.06172839506172839,0,0,0.06172839506172839,46.851851851851855,0)" xlink:href="#aO"/><use transform="matrix(0.06172839506172839,0,0,0.06172839506172839,59.19753086419753,0)" xlink:href="#ap"/><use transform="matrix(0.06172839506172839,0,0,0.06172839506172839,64.07407407407408,0)" xlink:href="#at"/></g><path fill="#333" d="M108 0H70L1-190h34L89-25l56-165h34" id="aQ"/><g id="i"><use transform="matrix(0.06172839506172839,0,0,0.06172839506172839,0,0)" xlink:href="#aP"/><use transform="matrix(0.06172839506172839,0,0,0.06172839506172839,15.987654320987653,0)" xlink:href="#aq"/><use transform="matrix(0.06172839506172839,0,0,0.06172839506172839,28.333333333333332,0)" xlink:href="#at"/><use transform="matrix(0.06172839506172839,0,0,0.06172839506172839,39.44444444444444,0)" xlink:href="#aq"/><use transform="matrix(0.06172839506172839,0,0,0.06172839506172839,51.79012345679012,0)" xlink:href="#aK"/><use transform="matrix(0.06172839506172839,0,0,0.06172839506172839,59.1358024691358,0)" xlink:href="#aQ"/><use transform="matrix(0.06172839506172839,0,0,0.06172839506172839,70.24691358024691,0)" xlink:href="#aO"/><use transform="matrix(0.06172839506172839,0,0,0.06172839506172839,82.5925925925926,0)" xlink:href="#ao"/><use transform="matrix(0.06172839506172839,0,0,0.06172839506172839,88.76543209876543,0)" xlink:href="#an"/><use transform="matrix(0.06172839506172839,0,0,0.06172839506172839,93.64197530864197,0)" xlink:href="#ax"/><use transform="matrix(0.06172839506172839,0,0,0.06172839506172839,105.98765432098766,0)" xlink:href="#aH"/><use transform="matrix(0.06172839506172839,0,0,0.06172839506172839,118.33333333333334,0)" xlink:href="#at"/></g><path fill="#333" d="M212-179c-10-28-35-45-73-45-59 0-87 40-87 99 0 60 29 101 89 101 43 0 62-24 78-52l27 14C228-24 195 4 139 4 59 4 22-46 18-125c-6-104 99-153 187-111 19 9 31 26 39 46" id="aR"/><g id="j"><use transform="matrix(0.06172839506172839,0,0,0.06172839506172839,0,0)" xlink:href="#aR"/><use transform="matrix(0.06172839506172839,0,0,0.06172839506172839,15.987654320987653,0)" xlink:href="#ax"/><use transform="matrix(0.06172839506172839,0,0,0.06172839506172839,28.333333333333332,0)" xlink:href="#aH"/><use transform="matrix(0.06172839506172839,0,0,0.06172839506172839,40.67901234567901,0)" xlink:href="#ao"/><use transform="matrix(0.06172839506172839,0,0,0.06172839506172839,46.851851851851855,0)" xlink:href="#aO"/><use transform="matrix(0.06172839506172839,0,0,0.06172839506172839,59.19753086419753,0)" xlink:href="#aw"/><use transform="matrix(0.06172839506172839,0,0,0.06172839506172839,70.30864197530865,0)" xlink:href="#ao"/></g><g id="k"><use transform="matrix(0.06172839506172839,0,0,0.06172839506172839,0,0)" xlink:href="#am"/><use transform="matrix(0.06172839506172839,0,0,0.06172839506172839,11.049382716049381,0)" xlink:href="#ax"/><use transform="matrix(0.06172839506172839,0,0,0.06172839506172839,23.39506172839506,0)" xlink:href="#aL"/><use transform="matrix(0.06172839506172839,0,0,0.06172839506172839,35.74074074074074,0)" xlink:href="#aK"/><use transform="matrix(0.06172839506172839,0,0,0.06172839506172839,43.08641975308642,0)" xlink:href="#at"/></g><path fill="#333" d="M240 0l2-218c-23 76-54 145-80 218h-23L58-218 59 0H30v-248h44l77 211c21-75 51-140 76-211h43V0h-30" id="aS"/><path fill="#333" d="M143 0L79-87 56-68V0H24v-261h32v163l83-92h37l-77 82L181 0h-38" id="aT"/><g id="l"><use transform="matrix(0.06172839506172839,0,0,0.06172839506172839,0,0)" xlink:href="#aS"/><use transform="matrix(0.06172839506172839,0,0,0.06172839506172839,18.456790123456788,0)" xlink:href="#aO"/><use transform="matrix(0.06172839506172839,0,0,0.06172839506172839,30.80246913580247,0)" xlink:href="#aT"/><use transform="matrix(0.06172839506172839,0,0,0.06172839506172839,41.91358024691358,0)" xlink:href="#aq"/></g><use transform="matrix(0.06172839506172839,0,0,0.06172839506172839,0,0)" xlink:href="#aO" id="m"/><g id="n"><use transform="matrix(0.06172839506172839,0,0,0.06172839506172839,0,0)" xlink:href="#aP"/><use transform="matrix(0.06172839506172839,0,0,0.06172839506172839,15.987654320987653,0)" xlink:href="#aq"/><use transform="matrix(0.06172839506172839,0,0,0.06172839506172839,28.333333333333332,0)" xlink:href="#at"/><use transform="matrix(0.06172839506172839,0,0,0.06172839506172839,39.44444444444444,0)" xlink:href="#aq"/><use transform="matrix(0.06172839506172839,0,0,0.06172839506172839,51.79012345679012,0)" xlink:href="#aK"/><use transform="matrix(0.06172839506172839,0,0,0.06172839506172839,59.1358024691358,0)" xlink:href="#aQ"/><use transform="matrix(0.06172839506172839,0,0,0.06172839506172839,70.24691358024691,0)" xlink:href="#aO"/><use transform="matrix(0.06172839506172839,0,0,0.06172839506172839,82.5925925925926,0)" xlink:href="#ao"/><use transform="matrix(0.06172839506172839,0,0,0.06172839506172839,88.76543209876543,0)" xlink:href="#an"/><use transform="matrix(0.06172839506172839,0,0,0.06172839506172839,93.64197530864197,0)" xlink:href="#ax"/><use transform="matrix(0.06172839506172839,0,0,0.06172839506172839,105.98765432098766,0)" xlink:href="#aH"/></g><g id="o"><use transform="matrix(0.06172839506172839,0,0,0.06172839506172839,0,0)" xlink:href="#aG"/><use transform="matrix(0.06172839506172839,0,0,0.06172839506172839,14.814814814814813,0)" xlink:href="#aw"/><use transform="matrix(0.06172839506172839,0,0,0.06172839506172839,25.925925925925924,0)" xlink:href="#ax"/><use transform="matrix(0.06172839506172839,0,0,0.06172839506172839,38.2716049382716,0)" xlink:href="#ax"/><use transform="matrix(0.06172839506172839,0,0,0.06172839506172839,50.61728395061728,0)" xlink:href="#ao"/><use transform="matrix(0.06172839506172839,0,0,0.06172839506172839,56.79012345679012,0)" xlink:href="#aq"/><use transform="matrix(0.06172839506172839,0,0,0.06172839506172839,69.1358024691358,0)" xlink:href="#aK"/><use transform="matrix(0.06172839506172839,0,0,0.06172839506172839,76.48148148148148,0)" xlink:href="#at"/></g><path d="M201 0v-1462h170v1308h645V0H201" id="aU"/><path d="M621-1116c316 0 501 239 501 567 0 339-180 575-508 569S119-212 115-549c-4-339 178-567 506-567zm-5 141c-239 0-329 168-329 426 0 255 93 430 331 430s332-174 332-430-95-426-334-426" id="aV"/><path d="M340-893c80-153 237-262 467-211l-23 154c-45-10-85-15-120-15-184-3-322 182-322 377V0H176v-1096h137l19 203h8" id="aW"/><path d="M995-51C878-2 799 19 639 20c-329 2-524-221-524-559 0-326 172-577 481-577 278 0 451 210 446 493v105H287c4 242 121 392 358 393 118 0 235-25 350-74v148zM864-653c2-195-85-324-270-324-190 0-288 139-303 324h573" id="aX"/><path d="M1368-1116c259 2 372 131 371 401V0h-166v-713c0-168-66-262-230-262-221 0-303 131-303 363V0H874v-713c-1-169-66-262-231-262-235 0-301 142-301 400V0H176v-1096h135l27 150h8c56-99 174-170 324-170 171 0 283 62 336 186h8c60-108 189-187 354-186" id="aY"/><g id="p"><use transform="matrix(0.009114583333333334,0,0,0.009114583333333334,0,0)" xlink:href="#aU"/><use transform="matrix(0.009114583333333334,0,0,0.009114583333333334,9.688802083333334,0)" xlink:href="#aV"/><use transform="matrix(0.009114583333333334,0,0,0.009114583333333334,20.963541666666668,0)" xlink:href="#aW"/><use transform="matrix(0.009114583333333334,0,0,0.009114583333333334,28.209635416666668,0)" xlink:href="#aX"/><use transform="matrix(0.009114583333333334,0,0,0.009114583333333334,38.68229166666667,0)" xlink:href="#aY"/></g><path d="M342 0H176v-1096h166V0zm-82-1282c-61 0-98-43-98-111 0-69 36-110 98-110 59 0 98 43 98 110s-39 111-98 111" id="aZ"/><path d="M1141-549c0 329-147 569-455 569-159 0-273-61-344-161h-12c23 199 7 418 12 633H176v-1588h135l23 150h8c77-108 175-170 344-170 311 0 455 237 455 567zm-172-2c0-242-88-424-307-424-256 0-323 154-320 426 3 280 68 430 324 430 213 0 303-196 303-432" id="ba"/><path d="M502-977c-130 0-238 32-238 139 0 75 39 101 95 134 33 19 97 46 192 81 130 48 217 95 263 143s69 108 69 181C883-73 695 20 449 20 304 20 190-3 109-49v-154c91 47 216 86 344 86 149 0 270-36 270-168 0-43-21-76-55-109-56-55-367-158-434-208-74-55-128-109-128-225 0-327 490-342 754-217l-59 135c-110-45-210-68-299-68" id="bb"/><path d="M563 20c-271 0-399-123-399-399v-717h168v711c1 177 76 266 252 266 250 0 331-135 331-401v-576h166V0H944l-24-147h-9C848-44 724 20 563 20" id="bc"/><g id="q"><use transform="matrix(0.009114583333333334,0,0,0.009114583333333334,0,0)" xlink:href="#aZ"/><use transform="matrix(0.009114583333333334,0,0,0.009114583333333334,4.721354166666667,0)" xlink:href="#ba"/><use transform="matrix(0.009114583333333334,0,0,0.009114583333333334,16.16015625,0)" xlink:href="#bb"/><use transform="matrix(0.009114583333333334,0,0,0.009114583333333334,25.065104166666668,0)" xlink:href="#bc"/><use transform="matrix(0.009114583333333334,0,0,0.009114583333333334,36.52213541666667,0)" xlink:href="#aY"/></g><path d="M115-545c0-330 146-571 454-571 149 0 263 54 342 162h13c-20-185-8-401-11-602h166V0H944l-22-147h-9C836-36 722 20 569 20c-309 0-454-234-454-565zm172 2c0 249 78 424 303 424 257 0 327-150 323-426-4-282-68-432-325-432-220 0-301 191-301 434" id="bd"/><path d="M342 0H176v-1556h166V0" id="be"/><g id="r"><use transform="matrix(0.009114583333333334,0,0,0.009114583333333334,0,0)" xlink:href="#bd"/><use transform="matrix(0.009114583333333334,0,0,0.009114583333333334,11.438802083333334,0)" xlink:href="#aV"/><use transform="matrix(0.009114583333333334,0,0,0.009114583333333334,22.713541666666668,0)" xlink:href="#be"/><use transform="matrix(0.009114583333333334,0,0,0.009114583333333334,27.434895833333336,0)" xlink:href="#aV"/><use transform="matrix(0.009114583333333334,0,0,0.009114583333333334,38.70963541666667,0)" xlink:href="#aW"/></g><path d="M354-322c-2 123 60 204 176 205 51 1 114-10 150-20v127C647 7 557 20 506 20 294 20 188-92 188-315v-652H31v-80l157-69 70-234h96v254h318v129H354v645" id="bf"/><g id="s"><use transform="matrix(0.009114583333333334,0,0,0.009114583333333334,0,0)" xlink:href="#bb"/><use transform="matrix(0.009114583333333334,0,0,0.009114583333333334,8.904947916666668,0)" xlink:href="#aZ"/><use transform="matrix(0.009114583333333334,0,0,0.009114583333333334,13.626302083333336,0)" xlink:href="#bf"/></g><path d="M588-1114c260 0 384 106 385 366V0H850l-33-156h-8C708-34 639 17 442 20 231 23 94-94 94-303c0-221 177-337 531-348l186-6c11-203-40-320-233-320-91 0-195 28-310 84l-51-127c97-53 229-94 371-94zM268-301c-1 123 81 184 207 184 203 0 334-120 332-323v-99c-257 14-539-7-539 238" id="bg"/><path d="M63 264c30-115 88-378 105-502h182l15 23C327-69 250 132 188 264H63" id="bh"/><g id="t"><use transform="matrix(0.009114583333333334,0,0,0.009114583333333334,0,0)" xlink:href="#bg"/><use transform="matrix(0.009114583333333334,0,0,0.009114583333333334,10.381510416666668,0)" xlink:href="#aY"/><use transform="matrix(0.009114583333333334,0,0,0.009114583333333334,27.744791666666668,0)" xlink:href="#aX"/><use transform="matrix(0.009114583333333334,0,0,0.009114583333333334,38.21744791666667,0)" xlink:href="#bf"/><use transform="matrix(0.009114583333333334,0,0,0.009114583333333334,44.80729166666667,0)" xlink:href="#bh"/></g><path d="M287-543c-1 247 91 418 323 418 91 0 185-20 281-59v147C818 1 725 20 614 20c-329 0-499-221-499-561 0-349 172-575 510-575 96 0 221 26 282 57l-51 141c-61-25-157-50-235-51-223 0-334 142-334 426" id="bi"/><path d="M694-1116c270 0 399 125 398 401V0H926v-709c-1-177-76-266-252-266-250 0-332 133-332 400V0H176v-1096h135l27 150h8c62-101 190-170 348-170" id="bj"/><g id="u"><use transform="matrix(0.009114583333333334,0,0,0.009114583333333334,0,0)" xlink:href="#bi"/><use transform="matrix(0.009114583333333334,0,0,0.009114583333333334,8.88671875,0)" xlink:href="#aV"/><use transform="matrix(0.009114583333333334,0,0,0.009114583333333334,20.161458333333336,0)" xlink:href="#bj"/><use transform="matrix(0.009114583333333334,0,0,0.009114583333333334,31.618489583333336,0)" xlink:href="#bb"/><use transform="matrix(0.009114583333333334,0,0,0.009114583333333334,40.5234375,0)" xlink:href="#aX"/><use transform="matrix(0.009114583333333334,0,0,0.009114583333333334,50.99609375,0)" xlink:href="#bi"/><use transform="matrix(0.009114583333333334,0,0,0.009114583333333334,59.88281250000001,0)" xlink:href="#bf"/><use transform="matrix(0.009114583333333334,0,0,0.009114583333333334,66.47265625,0)" xlink:href="#aX"/><use transform="matrix(0.009114583333333334,0,0,0.009114583333333334,76.9453125,0)" xlink:href="#bf"/><use transform="matrix(0.009114583333333334,0,0,0.009114583333333334,83.53515625,0)" xlink:href="#bc"/><use transform="matrix(0.009114583333333334,0,0,0.009114583333333334,94.9921875,0)" xlink:href="#aW"/></g><path d="M125-741c0-247 161-377 414-375 57 0 109 7 155 20h379v105l-203 24c37 48 72 129 72 219 0 255-227 390-504 345-71 37-106 84-106 141 0 78 66 88 164 88h194c219-1 369 87 369 293 0 121-49 213-146 277s-239 96-426 96c-250 0-448-83-448-306C39 36 147-58 283-86c-52-23-102-79-99-152 4-104 57-143 133-192-107-42-192-164-192-311zM438-25c-143-1-242 70-239 209s131 181 290 181c139 0 242-21 309-63s101-98 101-169c0-147-88-158-262-158H438zm94-970c-158 0-243 88-243 250 0 153 93 233 246 233 162 0 243-79 243-236 0-165-82-247-246-247" id="bk"/><g id="v"><use transform="matrix(0.009114583333333334,0,0,0.009114583333333334,0,0)" xlink:href="#bg"/><use transform="matrix(0.009114583333333334,0,0,0.009114583333333334,10.381510416666668,0)" xlink:href="#bd"/><use transform="matrix(0.009114583333333334,0,0,0.009114583333333334,21.8203125,0)" xlink:href="#aZ"/><use transform="matrix(0.009114583333333334,0,0,0.009114583333333334,26.541666666666668,0)" xlink:href="#ba"/><use transform="matrix(0.009114583333333334,0,0,0.009114583333333334,37.98046875,0)" xlink:href="#aZ"/><use transform="matrix(0.009114583333333334,0,0,0.009114583333333334,42.701822916666664,0)" xlink:href="#bb"/><use transform="matrix(0.009114583333333334,0,0,0.009114583333333334,51.60677083333333,0)" xlink:href="#bi"/><use transform="matrix(0.009114583333333334,0,0,0.009114583333333334,60.49348958333333,0)" xlink:href="#aZ"/><use transform="matrix(0.009114583333333334,0,0,0.009114583333333334,65.21484375,0)" xlink:href="#bj"/><use transform="matrix(0.009114583333333334,0,0,0.009114583333333334,76.671875,0)" xlink:href="#bk"/></g><path d="M270 29c-76 0-118-48-118-135 0-84 38-135 118-136 81 0 123 51 123 136 0 82-44 135-123 135" id="bl"/><g id="w"><use transform="matrix(0.009114583333333334,0,0,0.009114583333333334,0,0)" xlink:href="#aX"/><use transform="matrix(0.009114583333333334,0,0,0.009114583333333334,10.47265625,0)" xlink:href="#be"/><use transform="matrix(0.009114583333333334,0,0,0.009114583333333334,15.194010416666668,0)" xlink:href="#aZ"/><use transform="matrix(0.009114583333333334,0,0,0.009114583333333334,19.915364583333336,0)" xlink:href="#bf"/><use transform="matrix(0.009114583333333334,0,0,0.009114583333333334,26.505208333333336,0)" xlink:href="#bl"/></g><path d="M1128-1036c0 321-241 464-585 461H371V0H201v-1462h379c365 0 548 142 548 426zm-176 8c0-218-150-286-391-287H371v594h153c270-3 428-62 428-307" id="bm"/><g id="x"><use transform="matrix(0.009114583333333334,0,0,0.009114583333333334,0,0)" xlink:href="#bm"/><use transform="matrix(0.009114583333333334,0,0,0.009114583333333334,11.23828125,0)" xlink:href="#aW"/><use transform="matrix(0.009114583333333334,0,0,0.009114583333333334,18.484375,0)" xlink:href="#aV"/><use transform="matrix(0.009114583333333334,0,0,0.009114583333333334,29.759114583333336,0)" xlink:href="#aZ"/><use transform="matrix(0.009114583333333334,0,0,0.009114583333333334,34.48046875,0)" xlink:href="#bj"/></g><g id="y"><use transform="matrix(0.009114583333333334,0,0,0.009114583333333334,0,0)" xlink:href="#be"/><use transform="matrix(0.009114583333333334,0,0,0.009114583333333334,4.721354166666667,0)" xlink:href="#bc"/><use transform="matrix(0.009114583333333334,0,0,0.009114583333333334,16.178385416666668,0)" xlink:href="#bi"/><use transform="matrix(0.009114583333333334,0,0,0.009114583333333334,25.065104166666668,0)" xlink:href="#bf"/><use transform="matrix(0.009114583333333334,0,0,0.009114583333333334,31.654947916666668,0)" xlink:href="#bc"/><use transform="matrix(0.009114583333333334,0,0,0.009114583333333334,43.11197916666667,0)" xlink:href="#bb"/></g><g id="z"><use transform="matrix(0.009114583333333334,0,0,0.009114583333333334,0,0)" xlink:href="#aY"/><use transform="matrix(0.009114583333333334,0,0,0.009114583333333334,17.36328125,0)" xlink:href="#bg"/><use transform="matrix(0.009114583333333334,0,0,0.009114583333333334,27.744791666666668,0)" xlink:href="#bb"/><use transform="matrix(0.009114583333333334,0,0,0.009114583333333334,36.649739583333336,0)" xlink:href="#bb"/><use transform="matrix(0.009114583333333334,0,0,0.009114583333333334,45.5546875,0)" xlink:href="#bg"/></g><g id="A"><use transform="matrix(0.009114583333333334,0,0,0.009114583333333334,0,0)" xlink:href="#bj"/><use transform="matrix(0.009114583333333334,0,0,0.009114583333333334,11.45703125,0)" xlink:href="#aZ"/><use transform="matrix(0.009114583333333334,0,0,0.009114583333333334,16.178385416666668,0)" xlink:href="#bb"/><use transform="matrix(0.009114583333333334,0,0,0.009114583333333334,25.083333333333336,0)" xlink:href="#be"/><use transform="matrix(0.009114583333333334,0,0,0.009114583333333334,29.804687500000004,0)" xlink:href="#bh"/></g><g id="B"><use transform="matrix(0.009114583333333334,0,0,0.009114583333333334,0,0)" xlink:href="#aX"/><use transform="matrix(0.009114583333333334,0,0,0.009114583333333334,10.47265625,0)" xlink:href="#bf"/></g><path d="M287-543c0 246 78 424 303 424 259 0 323-148 323-426 0-279-71-432-325-432-220 0-301 191-301 434zm-172-2c0-328 147-571 454-571 150 0 265 57 346 170h9l24-150h131V492H913c5-208-11-450 11-639h-13C834-36 719 20 565 20c-305 0-450-240-450-565" id="bn"/><g id="C"><use transform="matrix(0.009114583333333334,0,0,0.009114583333333334,0,0)" xlink:href="#bg"/><use transform="matrix(0.009114583333333334,0,0,0.009114583333333334,10.381510416666668,0)" xlink:href="#be"/><use transform="matrix(0.009114583333333334,0,0,0.009114583333333334,15.102864583333336,0)" xlink:href="#aZ"/><use transform="matrix(0.009114583333333334,0,0,0.009114583333333334,19.824218750000007,0)" xlink:href="#bn"/><use transform="matrix(0.009114583333333334,0,0,0.009114583333333334,31.263020833333336,0)" xlink:href="#bc"/><use transform="matrix(0.009114583333333334,0,0,0.009114583333333334,42.720052083333336,0)" xlink:href="#aX"/><use transform="matrix(0.009114583333333334,0,0,0.009114583333333334,53.192708333333336,0)" xlink:href="#bf"/></g><path d="M440-561L59-1096h189l289 420 288-420h187L631-561 1032 0H844L537-444 227 0H39" id="bo"/><g id="D"><use transform="matrix(0.009114583333333334,0,0,0.009114583333333334,0,0)" xlink:href="#aX"/><use transform="matrix(0.009114583333333334,0,0,0.009114583333333334,10.098958333333334,0)" xlink:href="#bo"/></g><path d="M516-150c94-315 146-423 332-946h178L610 0H416L0-1096h178c98 281 253 670 330 946h8" id="bp"/><path d="M686 20c-159 0-273-61-344-161h-12L295 0H176v-1556h166c-2 198 6 423-8 606h8c77-109 192-164 344-164 310 0 455 234 455 565 0 329-147 569-455 569zm283-571c0-257-72-424-307-424-256 0-320 146-320 426s68 430 324 430c228 0 303-184 303-432" id="bq"/><g id="E"><use transform="matrix(0.009114583333333334,0,0,0.009114583333333334,0,0)" xlink:href="#bp"/><use transform="matrix(0.009114583333333334,0,0,0.009114583333333334,9.3515625,0)" xlink:href="#aX"/><use transform="matrix(0.009114583333333334,0,0,0.009114583333333334,19.82421875,0)" xlink:href="#bb"/><use transform="matrix(0.009114583333333334,0,0,0.009114583333333334,28.729166666666668,0)" xlink:href="#bf"/><use transform="matrix(0.009114583333333334,0,0,0.009114583333333334,35.31901041666667,0)" xlink:href="#aZ"/><use transform="matrix(0.009114583333333334,0,0,0.009114583333333334,40.040364583333336,0)" xlink:href="#bq"/><use transform="matrix(0.009114583333333334,0,0,0.009114583333333334,51.47916666666667,0)" xlink:href="#bc"/><use transform="matrix(0.009114583333333334,0,0,0.009114583333333334,62.93619791666667,0)" xlink:href="#be"/><use transform="matrix(0.009114583333333334,0,0,0.009114583333333334,67.65755208333334,0)" xlink:href="#bc"/><use transform="matrix(0.009114583333333334,0,0,0.009114583333333334,79.11458333333334,0)" xlink:href="#aY"/></g><g id="F"><use transform="matrix(0.009114583333333334,0,0,0.009114583333333334,0,0)" xlink:href="#bj"/><use transform="matrix(0.009114583333333334,0,0,0.009114583333333334,11.45703125,0)" xlink:href="#aX"/><use transform="matrix(0.009114583333333334,0,0,0.009114583333333334,21.9296875,0)" xlink:href="#bi"/><use transform="matrix(0.009114583333333334,0,0,0.009114583333333334,30.816406250000004,0)" xlink:href="#bl"/></g><path d="M848 0L352-1296h-8c27 395 8 875 14 1296H201v-1462h256L920-256h8l467-1206h254V0h-170c6-439-13-873 14-1294h-8L985 0H848" id="br"/><g id="G"><use transform="matrix(0.009114583333333334,0,0,0.009114583333333334,0,0)" xlink:href="#br"/><use transform="matrix(0.009114583333333334,0,0,0.009114583333333334,16.852864583333336,0)" xlink:href="#bg"/><use transform="matrix(0.009114583333333334,0,0,0.009114583333333334,27.234375,0)" xlink:href="#bc"/><use transform="matrix(0.009114583333333334,0,0,0.009114583333333334,38.69140625,0)" xlink:href="#aW"/><use transform="matrix(0.009114583333333334,0,0,0.009114583333333334,46.311197916666664,0)" xlink:href="#aZ"/><use transform="matrix(0.009114583333333334,0,0,0.009114583333333334,51.03255208333333,0)" xlink:href="#bb"/></g><g id="H"><use transform="matrix(0.009114583333333334,0,0,0.009114583333333334,0,0)" xlink:href="#bf"/><use transform="matrix(0.009114583333333334,0,0,0.009114583333333334,6.58984375,0)" xlink:href="#aX"/><use transform="matrix(0.009114583333333334,0,0,0.009114583333333334,17.0625,0)" xlink:href="#aY"/><use transform="matrix(0.009114583333333334,0,0,0.009114583333333334,34.42578125,0)" xlink:href="#ba"/><use transform="matrix(0.009114583333333334,0,0,0.009114583333333334,45.864583333333336,0)" xlink:href="#bc"/><use transform="matrix(0.009114583333333334,0,0,0.009114583333333334,57.321614583333336,0)" xlink:href="#bb"/></g><g id="I"><use transform="matrix(0.009114583333333334,0,0,0.009114583333333334,0,0)" xlink:href="#aX"/><use transform="matrix(0.009114583333333334,0,0,0.009114583333333334,10.47265625,0)" xlink:href="#be"/><use transform="matrix(0.009114583333333334,0,0,0.009114583333333334,15.194010416666668,0)" xlink:href="#aX"/><use transform="matrix(0.009114583333333334,0,0,0.009114583333333334,25.666666666666668,0)" xlink:href="#aY"/><use transform="matrix(0.009114583333333334,0,0,0.009114583333333334,43.02994791666667,0)" xlink:href="#aX"/><use transform="matrix(0.009114583333333334,0,0,0.009114583333333334,53.50260416666667,0)" xlink:href="#bj"/><use transform="matrix(0.009114583333333334,0,0,0.009114583333333334,64.95963541666667,0)" xlink:href="#bf"/><use transform="matrix(0.009114583333333334,0,0,0.009114583333333334,71.54947916666667,0)" xlink:href="#bc"/><use transform="matrix(0.009114583333333334,0,0,0.009114583333333334,83.00651041666667,0)" xlink:href="#aY"/></g><g id="J"><use transform="matrix(0.009114583333333334,0,0,0.009114583333333334,0,0)" xlink:href="#bd"/><use transform="matrix(0.009114583333333334,0,0,0.009114583333333334,11.438802083333334,0)" xlink:href="#aV"/><use transform="matrix(0.009114583333333334,0,0,0.009114583333333334,22.713541666666668,0)" xlink:href="#be"/><use transform="matrix(0.009114583333333334,0,0,0.009114583333333334,27.434895833333336,0)" xlink:href="#aV"/><use transform="matrix(0.009114583333333334,0,0,0.009114583333333334,38.70963541666667,0)" xlink:href="#aW"/><use transform="matrix(0.009114583333333334,0,0,0.009114583333333334,46.329427083333336,0)" xlink:href="#bl"/></g><path fill="#333" d="M137 0h-34L2-248h35l83 218 83-218h36" id="bs"/><g id="K"><use transform="matrix(0.06172839506172839,0,0,0.06172839506172839,0,0)" xlink:href="#aJ"/><use transform="matrix(0.06172839506172839,0,0,0.06172839506172839,13.148148148148147,0)" xlink:href="#am"/><use transform="matrix(0.06172839506172839,0,0,0.06172839506172839,26.666666666666664,0)" xlink:href="#bs"/><use transform="matrix(0.06172839506172839,0,0,0.06172839506172839,41.48148148148148,0)" xlink:href="#at"/></g><g id="L"><use transform="matrix(0.009114583333333334,0,0,0.009114583333333334,0,0)" xlink:href="#aX"/><use transform="matrix(0.009114583333333334,0,0,0.009114583333333334,10.47265625,0)" xlink:href="#be"/><use transform="matrix(0.009114583333333334,0,0,0.009114583333333334,15.194010416666668,0)" xlink:href="#aZ"/><use transform="matrix(0.009114583333333334,0,0,0.009114583333333334,19.915364583333336,0)" xlink:href="#bf"/><use transform="matrix(0.009114583333333334,0,0,0.009114583333333334,26.505208333333336,0)" xlink:href="#bl"/></g><g id="M"><use transform="matrix(0.009114583333333334,0,0,0.009114583333333334,0,0)" xlink:href="#bp"/><use transform="matrix(0.009114583333333334,0,0,0.009114583333333334,9.3515625,0)" xlink:href="#aX"/><use transform="matrix(0.009114583333333334,0,0,0.009114583333333334,19.82421875,0)" xlink:href="#bb"/><use transform="matrix(0.009114583333333334,0,0,0.009114583333333334,28.729166666666668,0)" xlink:href="#bf"/><use transform="matrix(0.009114583333333334,0,0,0.009114583333333334,35.31901041666667,0)" xlink:href="#aZ"/><use transform="matrix(0.009114583333333334,0,0,0.009114583333333334,40.040364583333336,0)" xlink:href="#bq"/><use transform="matrix(0.009114583333333334,0,0,0.009114583333333334,51.47916666666667,0)" xlink:href="#bc"/><use transform="matrix(0.009114583333333334,0,0,0.009114583333333334,62.93619791666667,0)" xlink:href="#be"/><use transform="matrix(0.009114583333333334,0,0,0.009114583333333334,67.65755208333334,0)" xlink:href="#bc"/><use transform="matrix(0.009114583333333334,0,0,0.009114583333333334,79.11458333333334,0)" xlink:href="#aY"/></g><g id="N"><use transform="matrix(0.009114583333333334,0,0,0.009114583333333334,0,0)" xlink:href="#bj"/><use transform="matrix(0.009114583333333334,0,0,0.009114583333333334,11.45703125,0)" xlink:href="#aX"/><use transform="matrix(0.009114583333333334,0,0,0.009114583333333334,21.9296875,0)" xlink:href="#bi"/><use transform="matrix(0.009114583333333334,0,0,0.009114583333333334,30.816406250000004,0)" xlink:href="#bl"/></g><path fill="#333" d="M153-248C145-148 188 4 80 4 36 3 13-21 6-62l32-5c4 25 16 42 43 43 27 0 39-20 39-49v-147H72v-28h81" id="bt"/><g id="O"><use transform="matrix(0.06172839506172839,0,0,0.06172839506172839,0,0)" xlink:href="#bt"/><use transform="matrix(0.06172839506172839,0,0,0.06172839506172839,11.11111111111111,0)" xlink:href="#aq"/><use transform="matrix(0.06172839506172839,0,0,0.06172839506172839,23.45679012345679,0)" xlink:href="#aq"/><use transform="matrix(0.06172839506172839,0,0,0.06172839506172839,35.80246913580247,0)" xlink:href="#as"/><use transform="matrix(0.06172839506172839,0,0,0.06172839506172839,48.148148148148145,0)" xlink:href="#at"/></g><g id="P"><use transform="matrix(0.06172839506172839,0,0,0.06172839506172839,0,0)" xlink:href="#aR"/><use transform="matrix(0.06172839506172839,0,0,0.06172839506172839,15.987654320987653,0)" xlink:href="#aL"/><use transform="matrix(0.06172839506172839,0,0,0.06172839506172839,28.333333333333332,0)" xlink:href="#aK"/><use transform="matrix(0.06172839506172839,0,0,0.06172839506172839,35.67901234567901,0)" xlink:href="#aK"/><use transform="matrix(0.06172839506172839,0,0,0.06172839506172839,43.02469135802469,0)" xlink:href="#aq"/><use transform="matrix(0.06172839506172839,0,0,0.06172839506172839,55.37037037037037,0)" xlink:href="#aH"/><use transform="matrix(0.06172839506172839,0,0,0.06172839506172839,67.71604938271605,0)" xlink:href="#ao"/></g><path fill="#333" d="M266 0h-40l-56-210L115 0H75L2-248h35L96-30l15-64 43-154h32l59 218 59-218h35" id="bu"/><g id="Q"><use transform="matrix(0.06172839506172839,0,0,0.06172839506172839,0,0)" xlink:href="#bu"/><use transform="matrix(0.06172839506172839,0,0,0.06172839506172839,20.493827160493826,0)" xlink:href="#aq"/><use transform="matrix(0.06172839506172839,0,0,0.06172839506172839,32.839506172839506,0)" xlink:href="#aO"/><use transform="matrix(0.06172839506172839,0,0,0.06172839506172839,45.18518518518518,0)" xlink:href="#ao"/><use transform="matrix(0.06172839506172839,0,0,0.06172839506172839,51.358024691358025,0)" xlink:href="#ar"/><use transform="matrix(0.06172839506172839,0,0,0.06172839506172839,63.7037037037037,0)" xlink:href="#aq"/><use transform="matrix(0.06172839506172839,0,0,0.06172839506172839,76.04938271604938,0)" xlink:href="#aK"/></g><g id="R"><use transform="matrix(0.06172839506172839,0,0,0.06172839506172839,0,0)" xlink:href="#aR"/><use transform="matrix(0.06172839506172839,0,0,0.06172839506172839,15.987654320987653,0)" xlink:href="#aL"/><use transform="matrix(0.06172839506172839,0,0,0.06172839506172839,28.333333333333332,0)" xlink:href="#aK"/><use transform="matrix(0.06172839506172839,0,0,0.06172839506172839,35.67901234567901,0)" xlink:href="#aK"/><use transform="matrix(0.06172839506172839,0,0,0.06172839506172839,43.02469135802469,0)" xlink:href="#aq"/><use transform="matrix(0.06172839506172839,0,0,0.06172839506172839,55.37037037037037,0)" xlink:href="#aH"/><use transform="matrix(0.06172839506172839,0,0,0.06172839506172839,67.71604938271605,0)" xlink:href="#ao"/><use transform="matrix(0.06172839506172839,0,0,0.06172839506172839,73.88888888888889,0)" xlink:href="#au"/></g><path fill="#333" d="M179-190L93 31C79 59 56 82 12 73V49c39 6 53-20 64-50L1-190h34L92-34l54-156h33" id="bv"/><g id="S"><use transform="matrix(0.06172839506172839,0,0,0.06172839506172839,0,0)" xlink:href="#aG"/><use transform="matrix(0.06172839506172839,0,0,0.06172839506172839,14.814814814814813,0)" xlink:href="#aL"/><use transform="matrix(0.06172839506172839,0,0,0.06172839506172839,27.160493827160494,0)" xlink:href="#aH"/><use transform="matrix(0.06172839506172839,0,0,0.06172839506172839,39.50617283950617,0)" xlink:href="#aH"/><use transform="matrix(0.06172839506172839,0,0,0.06172839506172839,51.85185185185185,0)" xlink:href="#bv"/></g><g id="T"><use transform="matrix(0.06172839506172839,0,0,0.06172839506172839,0,0)" xlink:href="#am"/><use transform="matrix(0.06172839506172839,0,0,0.06172839506172839,11.049382716049381,0)" xlink:href="#aq"/><use transform="matrix(0.06172839506172839,0,0,0.06172839506172839,23.39506172839506,0)" xlink:href="#az"/><use transform="matrix(0.06172839506172839,0,0,0.06172839506172839,41.85185185185185,0)" xlink:href="#as"/><use transform="matrix(0.06172839506172839,0,0,0.06172839506172839,54.197530864197525,0)" xlink:href="#aq"/><use transform="matrix(0.06172839506172839,0,0,0.06172839506172839,66.5432098765432,0)" xlink:href="#aK"/><use transform="matrix(0.06172839506172839,0,0,0.06172839506172839,73.88888888888889,0)" xlink:href="#aO"/><use transform="matrix(0.06172839506172839,0,0,0.06172839506172839,86.23456790123457,0)" xlink:href="#ao"/><use transform="matrix(0.06172839506172839,0,0,0.06172839506172839,92.4074074074074,0)" xlink:href="#aL"/><use transform="matrix(0.06172839506172839,0,0,0.06172839506172839,104.75308641975309,0)" xlink:href="#aK"/><use transform="matrix(0.06172839506172839,0,0,0.06172839506172839,112.09876543209877,0)" xlink:href="#aq"/><use transform="matrix(0.06172839506172839,0,0,0.06172839506172839,124.44444444444446,0)" xlink:href="#au"/></g><path fill="#333" d="M64 0c3-98 48-159 88-221H18v-27h164v26C143-157 98-101 97 0H64" id="bw"/><path fill="#333" d="M101-251c68 0 85 55 85 127S166 4 100 4C33 4 14-52 14-124c0-73 17-127 87-127zm-1 229c47 0 54-49 54-102s-4-102-53-102c-51 0-55 48-55 102 0 53 5 102 54 102" id="bx"/><path fill="#333" d="M63-220v92h138v28H63V0H30v-248h175v28H63" id="by"/><g id="U"><use transform="matrix(0.06172839506172839,0,0,0.06172839506172839,0,0)" xlink:href="#bw"/><use transform="matrix(0.06172839506172839,0,0,0.06172839506172839,12.345679012345679,0)" xlink:href="#bx"/><use transform="matrix(0.06172839506172839,0,0,0.06172839506172839,24.691358024691358,0)" xlink:href="#by"/></g><g id="V"><use transform="matrix(0.06172839506172839,0,0,0.06172839506172839,0,0)" xlink:href="#bu"/><use transform="matrix(0.06172839506172839,0,0,0.06172839506172839,20.925925925925924,0)" xlink:href="#an"/><use transform="matrix(0.06172839506172839,0,0,0.06172839506172839,25.80246913580247,0)" xlink:href="#aH"/><use transform="matrix(0.06172839506172839,0,0,0.06172839506172839,38.148148148148145,0)" xlink:href="#aM"/><use transform="matrix(0.06172839506172839,0,0,0.06172839506172839,50.49382716049382,0)" xlink:href="#au"/></g><path fill="#333" d="M155-56V0h-30v-56H8v-25l114-167h33v167h35v25h-35zm-30-156c-27 46-58 90-88 131h88v-131" id="bz"/><g id="W"><use transform="matrix(0.06172839506172839,0,0,0.06172839506172839,0,0)" xlink:href="#bz"/><use transform="matrix(0.06172839506172839,0,0,0.06172839506172839,12.345679012345679,0)" xlink:href="#az"/><use transform="matrix(0.06172839506172839,0,0,0.06172839506172839,30.80246913580247,0)" xlink:href="#as"/><use transform="matrix(0.06172839506172839,0,0,0.06172839506172839,43.148148148148145,0)" xlink:href="#ar"/></g><path fill="#333" d="M126-127c33 6 58 20 58 59 0 88-139 92-164 29-3-8-5-16-6-25l32-3c6 27 21 44 54 44 32 0 52-15 52-46 0-38-36-46-79-43v-28c39 1 72-4 72-42 0-27-17-43-46-43-28 0-47 15-49 41l-32-3c6-42 35-63 81-64 48-1 79 21 79 65 0 36-21 52-52 59" id="bA"/><path fill="#333" d="M16-82v-28h88v28H16" id="bB"/><g id="X"><use transform="matrix(0.06172839506172839,0,0,0.06172839506172839,0,0)" xlink:href="#bA"/><use transform="matrix(0.06172839506172839,0,0,0.06172839506172839,12.345679012345679,0)" xlink:href="#bB"/><use transform="matrix(0.06172839506172839,0,0,0.06172839506172839,19.691358024691358,0)" xlink:href="#aM"/><use transform="matrix(0.06172839506172839,0,0,0.06172839506172839,32.03703703703704,0)" xlink:href="#aO"/><use transform="matrix(0.06172839506172839,0,0,0.06172839506172839,44.382716049382715,0)" xlink:href="#bv"/></g><g id="Y"><use transform="matrix(0.06172839506172839,0,0,0.06172839506172839,0,0)" xlink:href="#by"/><use transform="matrix(0.06172839506172839,0,0,0.06172839506172839,13.518518518518517,0)" xlink:href="#ax"/><use transform="matrix(0.06172839506172839,0,0,0.06172839506172839,25.864197530864196,0)" xlink:href="#aK"/><use transform="matrix(0.06172839506172839,0,0,0.06172839506172839,33.20987654320987,0)" xlink:href="#aq"/><use transform="matrix(0.06172839506172839,0,0,0.06172839506172839,45.55555555555555,0)" xlink:href="#aw"/><use transform="matrix(0.06172839506172839,0,0,0.06172839506172839,56.66666666666666,0)" xlink:href="#aO"/><use transform="matrix(0.06172839506172839,0,0,0.06172839506172839,69.01234567901234,0)" xlink:href="#at"/><use transform="matrix(0.06172839506172839,0,0,0.06172839506172839,80.12345679012346,0)" xlink:href="#ao"/></g><g id="Z"><use transform="matrix(0.06172839506172839,0,0,0.06172839506172839,0,0)" xlink:href="#aS"/><use transform="matrix(0.06172839506172839,0,0,0.06172839506172839,18.456790123456788,0)" xlink:href="#ax"/><use transform="matrix(0.06172839506172839,0,0,0.06172839506172839,30.80246913580247,0)" xlink:href="#aH"/></g><g id="aa"><use transform="matrix(0.06172839506172839,0,0,0.06172839506172839,0,0)" xlink:href="#am"/><use transform="matrix(0.06172839506172839,0,0,0.06172839506172839,12.716049382716047,0)" xlink:href="#aL"/><use transform="matrix(0.06172839506172839,0,0,0.06172839506172839,25.061728395061728,0)" xlink:href="#aq"/></g><g id="ab"><use transform="matrix(0.06172839506172839,0,0,0.06172839506172839,0,0)" xlink:href="#bu"/><use transform="matrix(0.06172839506172839,0,0,0.06172839506172839,20.493827160493826,0)" xlink:href="#aq"/><use transform="matrix(0.06172839506172839,0,0,0.06172839506172839,32.839506172839506,0)" xlink:href="#aM"/></g><path fill="#333" d="M134-131c28 9 52 24 51 62-1 50-34 73-85 73S17-19 16-69c0-36 21-54 49-61-75-25-45-126 34-121 46 3 78 18 79 63 0 33-17 51-44 57zm-34-11c31 1 46-15 46-44 0-28-17-43-47-42-29 0-46 13-45 42 1 28 16 44 46 44zm1 122c35 0 51-18 51-52 0-30-18-46-53-46-33 0-51 17-51 47 0 34 19 51 53 51" id="bC"/><g id="ac"><use transform="matrix(0.06172839506172839,0,0,0.06172839506172839,0,0)" xlink:href="#bw"/><use transform="matrix(0.06172839506172839,0,0,0.06172839506172839,12.345679012345679,0)" xlink:href="#bC"/><use transform="matrix(0.06172839506172839,0,0,0.06172839506172839,24.691358024691358,0)" xlink:href="#by"/></g><g id="ad"><use transform="matrix(0.06172839506172839,0,0,0.06172839506172839,0,0)" xlink:href="#bC"/><use transform="matrix(0.06172839506172839,0,0,0.06172839506172839,12.345679012345679,0)" xlink:href="#bx"/><use transform="matrix(0.06172839506172839,0,0,0.06172839506172839,24.691358024691358,0)" xlink:href="#by"/></g><g id="ae"><use transform="matrix(0.049382716049382706,0,0,0.049382716049382706,0,0)" xlink:href="#aR"/><use transform="matrix(0.049382716049382706,0,0,0.049382716049382706,12.790123456790122,0)" xlink:href="#ax"/><use transform="matrix(0.049382716049382706,0,0,0.049382716049382706,22.666666666666664,0)" xlink:href="#as"/><use transform="matrix(0.049382716049382706,0,0,0.049382716049382706,32.5432098765432,0)" xlink:href="#bv"/><use transform="matrix(0.049382716049382706,0,0,0.049382716049382706,41.43209876543209,0)" xlink:href="#aK"/><use transform="matrix(0.049382716049382706,0,0,0.049382716049382706,47.30864197530863,0)" xlink:href="#an"/><use transform="matrix(0.049382716049382706,0,0,0.049382716049382706,51.209876543209866,0)" xlink:href="#aI"/><use transform="matrix(0.049382716049382706,0,0,0.049382716049382706,61.08641975308641,0)" xlink:href="#ar"/><use transform="matrix(0.049382716049382706,0,0,0.049382716049382706,70.96296296296295,0)" xlink:href="#ao"/></g><g id="af"><use transform="matrix(0.049382716049382706,0,0,0.049382716049382706,0,0)" xlink:href="#aG"/><use transform="matrix(0.049382716049382706,0,0,0.049382716049382706,11.85185185185185,0)" xlink:href="#aw"/><use transform="matrix(0.049382716049382706,0,0,0.049382716049382706,20.740740740740737,0)" xlink:href="#ax"/><use transform="matrix(0.049382716049382706,0,0,0.049382716049382706,30.617283950617278,0)" xlink:href="#ax"/><use transform="matrix(0.049382716049382706,0,0,0.049382716049382706,40.49382716049382,0)" xlink:href="#ao"/><use transform="matrix(0.049382716049382706,0,0,0.049382716049382706,45.432098765432094,0)" xlink:href="#at"/></g><path fill="#333" d="M32 76v-337h29V76H32" id="bD"/><use transform="matrix(0.049382716049382706,0,0,0.049382716049382706,0,0)" xlink:href="#bD" id="ag"/><g id="ah"><use transform="matrix(0.049382716049382706,0,0,0.049382716049382706,0,0)" xlink:href="#aR"/><use transform="matrix(0.049382716049382706,0,0,0.049382716049382706,12.790123456790122,0)" xlink:href="#ax"/><use transform="matrix(0.049382716049382706,0,0,0.049382716049382706,22.666666666666664,0)" xlink:href="#aH"/><use transform="matrix(0.049382716049382706,0,0,0.049382716049382706,32.5432098765432,0)" xlink:href="#ao"/><use transform="matrix(0.049382716049382706,0,0,0.049382716049382706,37.481481481481474,0)" xlink:href="#aO"/><use transform="matrix(0.049382716049382706,0,0,0.049382716049382706,47.35802469135801,0)" xlink:href="#aw"/><use transform="matrix(0.049382716049382706,0,0,0.049382716049382706,56.24691358024689,0)" xlink:href="#ao"/></g><path fill="#333" d="M232-93c-1 65-40 97-104 97C67 4 28-28 28-90v-158h33c8 89-33 224 67 224 102 0 64-133 71-224h33v155" id="bE"/><g id="ai"><use transform="matrix(0.049382716049382706,0,0,0.049382716049382706,0,0)" xlink:href="#bE"/><use transform="matrix(0.049382716049382706,0,0,0.049382716049382706,12.790123456790122,0)" xlink:href="#at"/></g><path fill="#333" d="M115-194c53 0 69 39 70 98 0 66-23 100-70 100C84 3 66-7 56-30L54 0H23l1-261h32v101c10-23 28-34 59-34zm-8 174c40 0 45-34 45-75 0-40-5-75-45-74-42 0-51 32-51 76 0 43 10 73 51 73" id="bF"/><g id="aj"><use transform="matrix(0.049382716049382706,0,0,0.049382716049382706,0,0)" xlink:href="#by"/><use transform="matrix(0.049382716049382706,0,0,0.049382716049382706,10.814814814814813,0)" xlink:href="#aO"/><use transform="matrix(0.049382716049382706,0,0,0.049382716049382706,20.691358024691354,0)" xlink:href="#aw"/><use transform="matrix(0.049382716049382706,0,0,0.049382716049382706,29.58024691358024,0)" xlink:href="#aq"/><use transform="matrix(0.049382716049382706,0,0,0.049382716049382706,39.456790123456784,0)" xlink:href="#bF"/><use transform="matrix(0.049382716049382706,0,0,0.049382716049382706,49.33333333333333,0)" xlink:href="#ax"/><use transform="matrix(0.049382716049382706,0,0,0.049382716049382706,59.20987654320987,0)" xlink:href="#ax"/><use transform="matrix(0.049382716049382706,0,0,0.049382716049382706,69.08641975308642,0)" xlink:href="#aT"/></g><path fill="#333" d="M33 0v-248h34V0H33" id="bG"/><g id="ak"><use transform="matrix(0.049382716049382706,0,0,0.049382716049382706,0,0)" xlink:href="#bG"/><use transform="matrix(0.049382716049382706,0,0,0.049382716049382706,4.93827160493827,0)" xlink:href="#aH"/><use transform="matrix(0.049382716049382706,0,0,0.049382716049382706,14.814814814814811,0)" xlink:href="#at"/><use transform="matrix(0.049382716049382706,0,0,0.049382716049382706,23.7037037037037,0)" xlink:href="#ao"/><use transform="matrix(0.049382716049382706,0,0,0.049382716049382706,28.64197530864197,0)" xlink:href="#aO"/><use transform="matrix(0.049382716049382706,0,0,0.049382716049382706,38.518518518518505,0)" xlink:href="#aI"/><use transform="matrix(0.049382716049382706,0,0,0.049382716049382706,48.39506172839505,0)" xlink:href="#aK"/><use transform="matrix(0.049382716049382706,0,0,0.049382716049382706,54.271604938271594,0)" xlink:href="#aO"/><use transform="matrix(0.049382716049382706,0,0,0.049382716049382706,64.14814814814814,0)" xlink:href="#az"/></g><path fill="#333" d="M206 0h-36l-40-164L89 0H53L-1-190h32L70-26l43-164h34l41 164 42-164h31" id="bH"/><g id="al"><use transform="matrix(0.049382716049382706,0,0,0.049382716049382706,0,0)" xlink:href="#am"/><use transform="matrix(0.049382716049382706,0,0,0.049382716049382706,9.82716049382716,0)" xlink:href="#bH"/><use transform="matrix(0.049382716049382706,0,0,0.049382716049382706,22.61728395061728,0)" xlink:href="#an"/><use transform="matrix(0.049382716049382706,0,0,0.049382716049382706,26.518518518518512,0)" xlink:href="#ao"/><use transform="matrix(0.049382716049382706,0,0,0.049382716049382706,31.456790123456784,0)" xlink:href="#ao"/><use transform="matrix(0.049382716049382706,0,0,0.049382716049382706,36.395061728395056,0)" xlink:href="#aq"/><use transform="matrix(0.049382716049382706,0,0,0.049382716049382706,46.271604938271594,0)" xlink:href="#aK"/></g></defs></g></svg>